<?xml version="1.0" encoding="UTF-8"?>
<svg id="Layer_2" data-name="Layer 2" xmlns="http://www.w3.org/2000/svg" viewBox="0 0 362.96 80">
  <defs>
    <style>
      .cls-1 {
        fill: #fff;
        stroke-width: 0px;
      }
    </style>
  </defs>
  <g id="Design">
    <g>
      <g>
        <g>
          <g>
            <path class="cls-1" d="M0,15.42h5.3v21.26h31.19V15.42h5.3v48.11h-5.3v-21.99H5.3v21.99H0V15.42Z"/>
            <path class="cls-1" d="M46.63,45.58c0-11.33,8.09-19.34,19.57-19.34s19.49,7.87,19.49,19.34v17.95h-4.56v-8.97c-2.57,6.47-8.6,9.93-15.67,9.93-10.22,0-18.83-7.28-18.83-18.9ZM80.76,45.36c0-8.38-5.88-14.56-14.56-14.56s-14.56,6.18-14.56,14.56,5.89,14.56,14.56,14.56,14.56-6.18,14.56-14.56Z"/>
            <path class="cls-1" d="M91.79,44.55c0-12.06,7.21-18.31,17.95-18.31s17.95,6.25,17.95,18.31v18.98h-4.93v-18.98c0-8.97-5.15-13.75-13.02-13.75s-13.02,4.78-13.02,13.75v18.98h-4.93v-18.98Z"/>
            <path class="cls-1" d="M131.21,45.21c0-11.18,8.16-18.98,18.83-18.98,6.91,0,12.58,3.24,15.3,8.75V11.3h4.93v33.84c0,11.69-8.16,19.34-19.42,19.34s-19.64-8.09-19.64-19.27ZM165.34,45.36c0-8.38-5.81-14.56-14.56-14.56s-14.56,6.18-14.56,14.56,5.89,14.56,14.56,14.56,14.56-6.18,14.56-14.56Z"/>
            <path class="cls-1" d="M176.73,68.31h4.93c1.91,4.93,6.4,7.35,12.43,7.35,7.8,0,13.24-3.82,13.24-13.31v-6.11c-2.57,5.22-7.43,8.02-13.75,8.02-9.71,0-17.21-5.89-17.21-18.32v-18.76h4.93v18.76c0,8.97,5.15,13.75,13.02,13.75s13.02-4.85,13.02-13.75v-18.76h4.93v35.01c0,12.65-8.02,17.8-18.17,17.8-8.24,0-15.08-3.82-17.36-11.69Z"/>
            <path class="cls-1" d="M234.98,11.3h4.93v52.22h-4.93V11.3Z"/>
            <path class="cls-1" d="M245.57,45.36c0-11.03,8.09-19.12,19.57-19.12s19.42,8.09,19.42,19.12v1.62h-33.91c.66,7.58,6.33,12.94,14.49,12.94,5.74,0,10.15-2.35,12.5-6.55h5.37c-2.79,6.69-9.41,11.11-17.87,11.11-11.48,0-19.57-8.09-19.57-19.12ZM279.41,42.56c-1.18-7.36-6.91-11.77-14.27-11.77s-13.24,4.64-14.34,11.77h28.61Z"/>
            <path class="cls-1" d="M285,27.19h5.52l13.83,31.63,13.83-31.63h5.37l-16.33,36.34h-5.88l-16.33-36.34Z"/>
            <path class="cls-1" d="M323.98,45.36c0-11.03,8.09-19.12,19.57-19.12s19.42,8.09,19.42,19.12v1.62h-33.91c.66,7.58,6.33,12.94,14.49,12.94,5.74,0,10.15-2.35,12.5-6.55h5.37c-2.79,6.69-9.41,11.11-17.87,11.11-11.48,0-19.57-8.09-19.57-19.12ZM357.81,42.56c-1.18-7.36-6.91-11.77-14.27-11.77s-13.24,4.64-14.34,11.77h28.61Z"/>
          </g>
          <g>
            <path class="cls-1" d="M54.23,1.19h6.15c3.28,0,4.73,1.83,4.73,4.3,0,2.3-1.24,3.83-3.51,4.26l4.03,5.37h-1.85l-3.77-5.28h-4.24v5.28h-1.53V1.19ZM60.4,8.43c2.32,0,3.15-1.28,3.15-2.94s-.83-2.9-3.15-2.9h-4.64v5.84h4.64Z"/>
            <path class="cls-1" d="M66.11,9.86c0-3.19,2.34-5.54,5.67-5.54s5.62,2.34,5.62,5.54v.47h-9.82c.19,2.19,1.83,3.75,4.2,3.75,1.66,0,2.94-.68,3.62-1.89h1.55c-.81,1.94-2.73,3.21-5.17,3.21-3.32,0-5.67-2.34-5.67-5.54ZM75.91,9.05c-.34-2.13-2-3.41-4.13-3.41s-3.83,1.34-4.15,3.41h8.28Z"/>
            <path class="cls-1" d="M78.43,9.86c0-3.19,2.34-5.54,5.67-5.54s5.62,2.34,5.62,5.54v.47h-9.82c.19,2.19,1.83,3.75,4.19,3.75,1.66,0,2.94-.68,3.62-1.89h1.56c-.81,1.94-2.73,3.21-5.18,3.21-3.32,0-5.67-2.34-5.67-5.54ZM88.22,9.05c-.34-2.13-2-3.41-4.13-3.41s-3.83,1.34-4.15,3.41h8.28Z"/>
            <path class="cls-1" d="M91.36,0h1.43v15.12h-1.43V0Z"/>
            <path class="cls-1" d="M100.47,1.19h1.53v12.52h8.43v1.4h-9.97V1.19Z"/>
            <path class="cls-1" d="M111.02,9.86c0-3.19,2.34-5.54,5.67-5.54s5.62,2.34,5.62,5.54v.47h-9.82c.19,2.19,1.83,3.75,4.19,3.75,1.66,0,2.94-.68,3.62-1.89h1.56c-.81,1.94-2.73,3.21-5.18,3.21-3.32,0-5.67-2.34-5.67-5.54ZM120.81,9.05c-.34-2.13-2-3.41-4.13-3.41s-3.83,1.34-4.15,3.41h8.28Z"/>
            <path class="cls-1" d="M123.44,9.92c0-3.28,2.34-5.6,5.67-5.6s5.64,2.28,5.64,5.6v5.2h-1.32v-2.6c-.74,1.87-2.49,2.87-4.54,2.87-2.96,0-5.45-2.11-5.45-5.47ZM133.32,9.86c0-2.43-1.7-4.22-4.22-4.22s-4.22,1.79-4.22,4.22,1.7,4.22,4.22,4.22,4.22-1.79,4.22-4.22Z"/>
            <path class="cls-1" d="M135.98,9.82c0-3.24,2.36-5.5,5.45-5.5,2,0,3.64.94,4.43,2.53V0h1.43v9.8c0,3.38-2.36,5.6-5.62,5.6s-5.69-2.34-5.69-5.58ZM145.86,9.86c0-2.43-1.68-4.22-4.22-4.22s-4.22,1.79-4.22,4.22,1.7,4.22,4.22,4.22,4.22-1.79,4.22-4.22Z"/>
          </g>
        </g>
        <g>
          <path class="cls-1" d="M.1,6.49c.46-.5,2.35-2.82,2.77-3.27.31-.35.81-.77,1.43-.77.36,0,.76.05,1.71.99l5.07,5.05-.85.9L4.98,3.96c-.08-.08-.39-.41-.74-.41-.38,0-.76.52-1.21,1.11-.29.38-1.53,2.11-1.81,2.44-.1.12-.25.29-.3.33l-.82-.93ZM10.19,2.18c0,.66-.52,1.2-1.2,1.2s-1.2-.54-1.2-1.2.55-1.2,1.2-1.2,1.2.53,1.2,1.2ZM8.38,2.18c0,.33.28.61.61.61s.62-.28.62-.61-.29-.61-.62-.61-.61.27-.61.61Z"/>
          <path class="cls-1" d="M22.64,4.33v1h-3.92c-.11,3.27-1.33,4.87-4.67,5.54l-.46-.9c2.92-.48,3.98-1.84,4.02-4.64h-4.6v-1h9.62ZM21.68,1.31v.99h-7.71v-.99h7.71Z"/>
          <path class="cls-1" d="M28.2,10.92h-.98v-4.25c-1.25.84-2.21,1.35-3.63,1.81l-.47-.84c3.24-1.11,5.44-2.95,6.8-4.74l.86.62c-1.07,1.11-1.64,1.67-2.58,2.43v4.97Z"/>
          <path class="cls-1" d="M32.68,8.95c2.39-1.13,4.31-2.99,5.83-5.14h-5.43v-.98h5.63V.84h1.03v1.99h2.96v.98h-2.96v5.63c0,.86-.35,1.36-1.53,1.35-.73,0-1.26-.05-1.69-.08l-.09-1.03c.33.03,1.02.11,1.68.11.2,0,.61,0,.61-.51v-4.17c-1.38,1.96-3.25,3.54-5.37,4.67l-.66-.83Z"/>
        </g>
      </g>
      <g>
        <path class="cls-1" d="M157.36,11.39c0,2.16-1.75,3.9-3.91,3.9s-3.9-1.75-3.9-3.9,1.76-3.91,3.9-3.91,3.91,1.72,3.91,3.91ZM149.84,11.39c0,1.99,1.62,3.61,3.61,3.61s3.62-1.62,3.62-3.61-1.64-3.62-3.62-3.62-3.61,1.6-3.61,3.62ZM154.05,8.98c.39,0,1.35.03,1.35,1.26,0,.24,0,.98-.78,1.19.53.12.72.45.72,1.07v.46c0,.53.07.72.1.84h-.7c-.02-.12-.06-.28-.06-.77v-.49c0-.81-.43-.83-.81-.83h-1.55v2.08h-.68v-4.81h2.41ZM152.32,9.58v1.53h1.58c.36,0,.82-.02.82-.82,0-.56-.26-.71-.79-.71h-1.62Z"/>
        <path class="cls-1" d="M157.36,11.39c0,2.16-1.75,3.9-3.91,3.9s-3.9-1.75-3.9-3.9,1.76-3.91,3.9-3.91,3.91,1.72,3.91,3.91ZM149.84,11.39c0,1.99,1.62,3.61,3.61,3.61s3.62-1.62,3.62-3.61-1.64-3.62-3.62-3.62-3.61,1.6-3.61,3.62ZM154.05,8.98c.39,0,1.35.03,1.35,1.26,0,.24,0,.98-.78,1.19.53.12.72.45.72,1.07v.46c0,.53.07.72.1.84h-.7c-.02-.12-.06-.28-.06-.77v-.49c0-.81-.43-.83-.81-.83h-1.55v2.08h-.68v-4.81h2.41ZM152.32,9.58v1.53h1.58c.36,0,.82-.02.82-.82,0-.56-.26-.71-.79-.71h-1.62Z"/>
        <path class="cls-1" d="M157.36,11.39c0,2.16-1.75,3.9-3.91,3.9s-3.9-1.75-3.9-3.9,1.76-3.91,3.9-3.91,3.91,1.72,3.91,3.91ZM149.84,11.39c0,1.99,1.62,3.61,3.61,3.61s3.62-1.62,3.62-3.61-1.64-3.62-3.62-3.62-3.61,1.6-3.61,3.62ZM154.05,8.98c.39,0,1.35.03,1.35,1.26,0,.24,0,.98-.78,1.19.53.12.72.45.72,1.07v.46c0,.53.07.72.1.84h-.7c-.02-.12-.06-.28-.06-.77v-.49c0-.81-.43-.83-.81-.83h-1.55v2.08h-.68v-4.81h2.41ZM152.32,9.58v1.53h1.58c.36,0,.82-.02.82-.82,0-.56-.26-.71-.79-.71h-1.62Z"/>
      </g>
    </g>
  </g>
</svg>