<?xml version="1.0" encoding="UTF-8"?>
<svg id="Layer_2" data-name="Layer 2" xmlns="http://www.w3.org/2000/svg" viewBox="0 0 726.06 133.24">
  <defs>
    <style>
      .cls-1 {
        fill: #e4de52;
      }

      .cls-1, .cls-2, .cls-3, .cls-4 {
        stroke-width: 0px;
      }

      .cls-3 {
        fill: #fff;
      }

      .cls-4 {
        fill: #ac2d37;
      }
    </style>
  </defs>
  <g id="Design">
    <g>
      <rect class="cls-1" y="104.89" width="726.06" height="28.35"/>
      <g>
        <g>
          <g>
            <rect class="cls-4" x="255.91" y="0" width="459.3" height="63.23" rx="31.62" ry="31.62"/>
            <path class="cls-4" d="M271.36,50.19s-2.56,6.83-7.45,9.45c-4.89,2.61-8.61,2.95-8.61,2.95,0,0,8.13,3.69,16.43-.23,8.33-3.94,9.4-9.03,9.4-9.03l-9.77-3.13Z"/>
          </g>
          <g>
            <path class="cls-4" d="M41.35,120.73V21.44l-16.77,12.33v-17.75L41.35,3.69h16.77v117.04h-16.77Z"/>
            <path class="cls-4" d="M72.81,120.73v-15.78l30.25-57.04c1.53-2.85,2.41-5.34,2.63-7.48.22-2.14.33-4.79.33-7.97,0-1.42-.03-2.93-.08-4.52-.06-1.59-.36-2.98-.9-4.19-.55-1.2-1.37-2.22-2.47-3.04-1.1-.82-2.69-1.23-4.77-1.23-2.52,0-4.52.71-6,2.14-1.48,1.43-2.22,3.51-2.22,6.25v9.53h-16.77v-9.21c0-3.51.66-6.79,1.97-9.86,1.32-3.07,3.12-5.75,5.42-8.05,2.19-2.3,4.82-4.14,7.89-5.51,3.07-1.37,6.35-2.05,9.86-2.05,4.38,0,8.14.8,11.26,2.38,3.12,1.59,5.73,3.76,7.81,6.49,1.97,2.74,3.42,5.86,4.36,9.37.93,3.51,1.4,7.23,1.4,11.18,0,2.85-.06,5.23-.16,7.15-.11,1.92-.33,3.76-.66,5.51-.33,1.75-.88,3.51-1.64,5.26-.77,1.75-1.81,3.89-3.12,6.41l-24.66,47.51h30.25v16.77h-49.97Z"/>
            <path class="cls-4" d="M129.49,27.85c0-3.95.68-7.45,2.06-10.52,1.37-3.07,3.21-5.7,5.51-7.89,2.3-2.19,4.96-3.86,7.97-5.01,3.01-1.15,6.16-1.73,9.45-1.73s6.44.58,9.45,1.73c3.01,1.15,5.67,2.82,7.97,5.01,2.3,2.19,4.14,4.82,5.51,7.89,1.37,3.07,2.05,6.58,2.05,10.52v68.71c0,3.95-.69,7.45-2.05,10.52-1.37,3.07-3.21,5.7-5.51,7.89-2.3,2.19-4.96,3.86-7.97,5.01-3.02,1.15-6.16,1.73-9.45,1.73s-6.44-.58-9.45-1.73c-3.02-1.15-5.67-2.82-7.97-5.01-2.3-2.19-4.14-4.82-5.51-7.89-1.37-3.07-2.06-6.58-2.06-10.52V27.85ZM146.26,96.57c0,2.41.77,4.41,2.3,6,1.53,1.59,3.51,2.38,5.92,2.38s4.38-.79,5.92-2.38c1.53-1.59,2.3-3.59,2.3-6V27.85c0-2.41-.77-4.41-2.3-6-1.54-1.59-3.51-2.38-5.92-2.38s-4.38.8-5.92,2.38c-1.54,1.59-2.3,3.59-2.3,6v68.71Z"/>
            <path class="cls-4" d="M197.68,39.36c-4.27,0-7.67-1.15-10.19-3.45-2.52-2.3-3.78-5.31-3.78-9.04v-10.68c0-4.16,1.26-7.45,3.78-9.86,2.52-2.41,5.92-3.62,10.19-3.62s7.67,1.21,10.19,3.62c2.52,2.41,3.78,5.7,3.78,9.86v10.68c0,3.73-1.26,6.74-3.78,9.04-2.52,2.3-5.92,3.45-10.19,3.45ZM185.68,120.73L225.79,3.69h10.85l-40.11,117.04h-10.85ZM197.68,29.5c1.09,0,2.05-.41,2.88-1.23.82-.82,1.23-1.83,1.23-3.04v-8.38c0-1.2-.41-2.22-1.23-3.04-.82-.82-1.78-1.23-2.88-1.23s-2.05.41-2.88,1.23c-.82.82-1.23,1.84-1.23,3.04v8.38c0,1.21.41,2.22,1.23,3.04.82.82,1.78,1.23,2.88,1.23ZM224.64,121.72c-4.27,0-7.67-1.15-10.19-3.45-2.52-2.3-3.78-5.31-3.78-9.04v-10.68c0-4.16,1.26-7.45,3.78-9.86,2.52-2.41,5.92-3.62,10.19-3.62s7.67,1.21,10.19,3.62c2.52,2.41,3.78,5.7,3.78,9.86v10.68c0,3.73-1.26,6.74-3.78,9.04-2.52,2.3-5.92,3.45-10.19,3.45ZM220.53,107.58c0,1.21.41,2.22,1.23,3.04s1.78,1.23,2.88,1.23,2.05-.41,2.88-1.23c.82-.82,1.23-1.83,1.23-3.04v-8.38c0-1.2-.41-2.22-1.23-3.04-.82-.82-1.78-1.23-2.88-1.23s-2.06.41-2.88,1.23-1.23,1.84-1.23,3.04v8.38Z"/>
          </g>
        </g>
        <g>
          <path class="cls-3" d="M275.77,34.81c2.43-2.02,5.91-6.01,9.14-10.57,1.01-1.43,1.98-2.16,2.95-2.16.59,0,1.22.28,1.91.87q.35.31,1.63,1.7c6.26,6.85,10.95,11.16,14.98,13.8l-2.68,4.28c-3.86-2.89-9.32-8.27-14.39-14.18-.63-.73-1.04-1.04-1.39-1.04-.38,0-.7.31-1.22,1.11-2.78,4.28-5.74,8.06-8.06,10.29l-2.89-4.1ZM303.71,22.85c0,2.29-1.88,4.21-4.1,4.21s-3.96-1.95-3.96-4.21,1.84-4.21,4.03-4.21,4.03,1.95,4.03,4.21ZM297.67,22.85c0,1.15.94,2.12,1.98,2.12s2.02-1.01,2.02-2.12-.9-2.05-2.02-2.05-1.98.94-1.98,2.05Z"/>
          <path class="cls-3" d="M328.6,31.27c-.42,8.27-3.34,12.97-10.15,16.13l-3.09-3.48c6.15-2.61,8.59-6.12,8.83-12.65h-12.48v-4.03h27.98v4.03h-11.09ZM335.42,18.86v4.03h-19.26v-4.03h19.26Z"/>
          <path class="cls-3" d="M363.71,46.56h-3.96v-12.34c-2.4,1.91-5.14,3.68-7.58,4.83l-2.47-3.44c6.57-2.99,12.1-7.54,15.92-13.17l3.44,2.4c-1.46,1.98-3.16,3.86-5.35,5.91v15.82Z"/>
          <path class="cls-3" d="M382.27,28.17v-4.07h14.53v-6.95h4.24v6.57h8.24v4.07h-8.03v15.19c0,3.02-.9,3.89-4.1,3.89-2.02,0-3.48-.1-4.9-.31l-.94-4.41c1.63.31,3.13.45,4.48.45,1.01,0,1.22-.24,1.22-1.36v-9.77c-2.85,4.8-8.52,10.15-13,12.27l-2.75-3.41c5.35-2.75,10.12-6.99,13.66-12.17h-12.65Z"/>
          <path class="cls-3" d="M429.86,42.46c7.3-1.91,10.43-5.18,10.43-10.88,0-4.8-2.64-7.93-7.47-8.83-.38,6.57-1.81,11.92-4.35,16.48-1.91,3.44-3.68,4.97-5.77,4.97-1.22,0-2.57-.59-3.86-1.67-2.09-1.77-3.41-4.9-3.41-8.13,0-4.34,1.67-8.31,4.8-11.33,3.02-2.78,6.47-4.14,10.5-4.14,8.55,0,14.29,5.14,14.29,12.83s-4.62,12.48-12.86,14.39l-2.29-3.68ZM419.47,33.94c0,2.95,1.39,5.77,2.88,5.77.73,0,1.6-.97,2.68-3.06,1.81-3.55,3.06-8.31,3.61-13.87-2.02.35-3.89,1.29-5.28,2.57-2.57,2.5-3.89,5.46-3.89,8.59Z"/>
          <path class="cls-3" d="M460.48,18.61v15.99h-4.45v-15.99h4.45ZM473.62,17.88v12.1c.1,8.76-2.92,13.94-10.46,17.8l-3.06-3.61c3.48-1.43,6.6-4.14,7.82-6.78.9-1.84,1.25-4.07,1.25-7.75v-11.75h4.45Z"/>
          <path class="cls-3" d="M513.84,29.77v4.48h-28.16v-4.48h28.16Z"/>
          <path class="cls-3" d="M518.71,42.74c3.09-2.05,5.42-5.49,6.29-9.32.63-2.78.87-6.47.87-13.45l4.17.28c0,7.37-.31,11.85-1.08,14.95-1.04,4.21-3.51,7.93-7.09,10.81l-3.16-3.27ZM537.76,18.61v20.96c3.65-2.19,7.44-5.94,10.12-9.94l2.29,3.89c-3.44,4.76-7.99,8.86-13.45,12.1l-3.09-2.4v-24.61h4.14Z"/>
          <path class="cls-3" d="M564.76,18.61v15.99h-4.45v-15.99h4.45ZM577.9,17.88v12.1c.1,8.76-2.92,13.94-10.46,17.8l-3.06-3.61c3.48-1.43,6.6-4.14,7.82-6.78.9-1.84,1.25-4.07,1.25-7.75v-11.75h4.45Z"/>
          <path class="cls-3" d="M618.12,29.77v4.48h-28.16v-4.48h28.16Z"/>
          <path class="cls-3" d="M637.38,26.61c4.31,1.91,9,4.62,12.97,7.44l-2.68,4.07c-3.89-2.92-7.02-4.97-10.5-6.88v15.57h-4.45v-29.55h4.45v9.25l.21.1ZM646.45,25.95c-1.01-1.81-2.22-3.51-3.48-4.94l2.33-1.7c1.29,1.32,2.5,3.02,3.58,4.87l-2.43,1.77ZM650.55,23.51c-1.11-1.88-2.4-3.58-3.58-4.8l2.29-1.74c1.39,1.36,2.68,2.99,3.72,4.73l-2.43,1.81Z"/>
          <path class="cls-3" d="M658.86,22.09c6.71-.87,17.94-2.02,27.11-2.82l.59,3.96c-3.55.28-6.29,1.01-8.27,2.19-3.65,2.19-6.01,5.91-6.01,9.42,0,4.69,3.48,7.09,10.6,7.37l.17,4.48c-9.07-.1-14.91-4.55-14.91-11.33,0-4.38,2.05-8.24,5.94-11.16l-2.43.31c-5.8.73-9.52,1.29-12.17,1.74l-.63-4.17ZM682.6,34.08c-.94-1.81-2.12-3.48-3.3-4.83l2.33-1.53c1.22,1.29,2.33,2.89,3.34,4.69l-2.36,1.67ZM686.53,31.37c-.94-1.67-2.16-3.27-3.48-4.66l2.29-1.67c1.39,1.43,2.54,2.89,3.55,4.59l-2.36,1.74Z"/>
        </g>
        <g>
          <path class="cls-2" d="M261.33,96.55c3.86-1.78,7.78-4.26,11-6.88l2.18,4.9c-2.63,2.03-6.69,4.75-10.15,6.79l-3.02-4.8ZM280.1,80.8c.5-1.63.84-3.07,1.04-4.51l5.7.64c-.45,1.39-.99,2.82-1.49,3.86h7.63v18.43h-6.44v2.97h18.92v4.75h-15.26c4.36,3.37,9.51,5.75,16.64,7.78l-3.37,5.05c-6.69-2.63-12.18-6.09-16.94-10.75v11.99h-5.55v-11.64c-4.41,4.95-9.86,8.62-16.39,11.09l-3.22-4.8c6.49-1.78,11.84-4.61,16.39-8.72h-15.4v-4.75h18.62v-2.97h-6.24v-18.43h5.35ZM270.24,89.47c-2.08-2.58-4.8-5.25-7.33-7.13l3.96-3.86c2.72,1.93,5.45,4.51,7.38,6.93l-4.01,4.06ZM288.13,88.23v-3.47h-8.52v3.47h8.52ZM288.13,95.46v-3.67h-8.52v3.67h8.52ZM293.18,85.76c2.38-2.08,5.05-5,6.98-7.68l4.9,3.47c-2.03,2.38-5.25,5.5-7.92,7.68l-3.96-3.47ZM302.79,100.47c-2.92-2.72-6.39-5.4-9.56-7.33l3.52-3.91c3.42,1.88,7.13,4.41,10.15,6.88l-4.11,4.36Z"/>
          <path class="cls-2" d="M326.46,78.82v26.85c0,5.45,1.63,7.88,5.35,7.88,5.7,0,10.05-3.67,14.41-12.09l4.36,4.85c-2.48,4.41-5.5,8.12-8.47,10.35-3.17,2.38-6.39,3.42-10.6,3.42-7.48,0-11.19-4.51-11.19-13.52v-27.74h6.14Z"/>
          <path class="cls-2" d="M369.99,77.53h5.79l-.25,6.39c3.02-.25,6.09-.59,8.82-1.04l.59,5.5c-2.87.4-6.59.79-9.61,1.04l-.3,8.57c.45,1.09.74,2.62.74,3.96,0,2.08-.45,3.67-1.54,5.35-.89,1.39-1.49,3.12-1.49,4.21,0,1.68,2.67,2.58,7.92,2.58,2.43,0,5.45-.35,6.84-.79,1.78-.5,2.67-1.98,2.67-4.31s-.84-5.94-1.93-8.82l5.7-.45c1.24,2.77,2.23,7.53,2.23,10.65,0,3.76-1.54,6.39-4.51,7.63-2.23.99-6.64,1.58-11.29,1.58-9.01,0-13.27-1.83-13.27-5.7,0-.89.2-1.83.54-2.67-.79.15-1.44.25-2.08.25-2.03,0-3.47-.79-4.66-2.53-.94-1.39-1.34-3.17-1.34-5.99.25-2.48.69-3.96,1.68-5.55,1.54-2.58,4.06-4.11,6.69-4.11.59,0,1.19.05,1.83.25l.05-3.76c-4.71.2-4.95.2-6.04.2-1.19.05-2.08.05-4.11.05v-5.55h1.54c3.37,0,4.66,0,8.22-.15h.5l.05-6.79ZM370.58,102.1l.05-.3c.1-.89-.25-2.38-.69-3.07s-1.14-1.09-1.88-1.09c-2.08,0-3.71,2.28-3.81,5.45,0,2.38.99,3.62,2.77,3.62,2.03,0,3.17-1.34,3.57-4.36v-.25ZM398.67,98.83c-3.02-4.36-6.54-8.22-10.45-11.64l4.21-3.71c3.67,2.87,7.53,6.74,10.6,10.8l-4.36,4.56Z"/>
          <path class="cls-2" d="M420.26,77.83h5.4v7.73c3.12-.45,5.55-.89,7.78-1.54l.4,5.5c-3.07.64-4.51.89-8.17,1.39v6.24c2.58-.69,5.75-1.09,8.72-1.09,7.73,0,13.08,4.46,13.08,10.85,0,7.53-5.94,12.18-16.74,13.13l-2.38-5.4c9.66-.94,13.32-3.07,13.32-7.83,0-3.57-3.07-5.8-7.92-5.8-2.58,0-5,.4-8.07,1.29v12.04c0,3.52-1.78,5.35-5.05,5.35s-6.34-1.29-8.42-3.52c-1.34-1.49-1.88-2.82-1.93-4.9.3-4.75,3.71-8.87,10.01-12.09v-7.68c-2.33.25-5.84.5-8.12.5v-5.55c2.53,0,5.3-.1,8.12-.3v-8.32ZM420.35,104.63c-3.17,1.88-5,4.41-5,6.74.05.99.4,1.68,1.19,2.28.74.54,1.88.99,2.53.99.84,0,1.29-.64,1.29-1.83v-8.17ZM446.31,93.28c-3.32-3.32-7.13-6.49-10.35-8.52l3.47-4.26c3.86,2.38,7.58,5.25,10.4,8.12l-3.52,4.66Z"/>
          <path class="cls-2" d="M496.99,89.87c-.74,7.08-2.13,12.78-4.21,17.19,2.58,3.42,5.75,6.54,9.06,8.96l-3.32,4.61c-2.53-1.73-5.94-5.25-8.42-8.77-2.67,3.86-5.99,7.13-9.76,9.51l-3.27-4.51c3.96-1.98,7.68-5.55,10.05-9.71-1.78-3.27-3.22-6.69-4.06-9.46-.99,2.38-1.54,3.52-2.72,5.55l-3.12-4.9c.74-1.49.99-2.08,1.49-3.22h-23.18v-4.46h5.6v-4.26h-4.41v-4.36h4.41v-5.35h4.56v5.35h4.11v-5.35h4.56v5.35h4.26v4.36h-4.26v4.26h4.85v3.17c1.78-4.51,3.07-10.7,3.76-17.48l5.15,1.09c-.45,2.92-.79,4.9-1.29,7.38h13.57v5.05h-3.42ZM476.54,116.76c0,2.82-1.04,3.71-4.26,3.71-1.49,0-3.17-.1-4.26-.25l-.74-4.56c.84.2,2.23.35,3.27.35s1.24-.25,1.24-1.24v-2.08h-8.32v8.32h-4.75v-23.43h17.83v19.17ZM463.46,103.59h8.32v-2.33h-8.32v2.33ZM463.46,109.33h8.32v-2.38h-8.32v2.38ZM465.69,86.4v4.26h4.11v-4.26h-4.11ZM485.6,89.97c.64,4.01,1.98,8.02,3.96,11.84,1.14-3.37,1.98-7.23,2.53-11.94h-6.44l-.05.1Z"/>
          <path class="cls-2" d="M543.82,82.19v4.66h-13.77v4.31h18.72v4.75h-18.57v10.35c0,2.63-1.78,4.11-4.95,4.11-1.78,0-3.67-.15-5.35-.45l-.84-4.9c1.58.3,3.17.5,4.36.5.99,0,1.24-.3,1.24-1.49v-8.12h-18.97v-4.75h7.03v-10.2h5.55v10.2h6.14v-14.71h5.65v5.75h13.77ZM506.42,107.15c3.76-2.77,6.79-6.04,9.26-10.05l4.85,2.28c-3.02,4.95-6.09,8.52-10.05,11.64l-4.06-3.86ZM510.34,116.41c12.28-1.09,20.9-5.65,24.76-13.18l5.1,2.87c-5.15,8.82-13.92,13.92-26.55,15.4l-3.32-5.1ZM545.06,110.27c-3.02-4.06-6.39-7.48-10.55-10.75l4.46-2.82c4.16,3.02,7.78,6.29,10.7,9.71l-4.61,3.86Z"/>
          <path class="cls-2" d="M590.74,91.4l3.02,2.92c-3.96,13.72-12.43,22.54-25.26,26.15l-3.86-5.35c11.69-3.27,18.92-9.36,21.55-18.03h-28.18v-5.7h32.74ZM588.81,80.01v5.75h-26.6v-5.75h26.6Z"/>
          <path class="cls-2" d="M626.87,120.23h-6.34v-22.64c-4.11,3.27-9.46,6.64-13.92,8.82l-3.81-5.35c9.21-3.42,22.68-14.61,28.58-23.72l5.15,3.52c-2.43,3.67-5.7,7.43-9.66,11.19v28.18Z"/>
          <path class="cls-2" d="M683.42,85.46c-1.78,8.67-5.1,16.15-9.46,21.35-4.01,4.9-10.75,9.81-16.54,12.13l-4.11-5.4c12.43-4.9,20.26-13.72,22.69-25.46l-26.3.59v-6.29l30.31-.4,3.42,3.47Z"/>
          <path class="cls-2" d="M703.64,78.18l-1.04,29.32h-5.65l-1.04-29.32h7.73ZM703.64,111.02v7.73h-7.73v-7.73h7.73Z"/>
        </g>
      </g>
    </g>
  </g>
</svg>