<?xml version="1.0" encoding="UTF-8"?>
<svg id="Layer_2" data-name="Layer 2" xmlns="http://www.w3.org/2000/svg" viewBox="0 0 413.29 80">
  <defs>
    <style>
      .cls-1 {
        fill: #211815;
        stroke-width: 0px;
      }
    </style>
  </defs>
  <g id="Back">
    <g>
      <g>
        <path class="cls-1" d="M180.41,20.66h-3.34l4.21-16.1h3.35l-4.22,16.1Z"/>
        <path class="cls-1" d="M169.79,15.57h2.57l2.47-9.23h3.18l-3.09,11.53c-.42,1.57-1.11,2.73-2.05,3.48-.95.76-2.19,1.13-3.73,1.13h-6.25l.3-1.12s.34-1.28,1.87-1.28h4.17c.62,0,1.12-.15,1.53-.44.41-.28.68-.71.83-1.26l.05-.2h-2.82c-1.8,0-3-.35-3.58-1.05-.58-.7-.65-1.87-.21-3.51l1.96-7.3h3.16l-1.9,7.06c-.24.89-.26,1.48-.06,1.76.21.27.73.41,1.6.41Z"/>
        <path class="cls-1" d="M214.3,8.83h5.31c1.24,0,2.05.22,2.44.67.39.45.43,1.22.14,2.33l-.51,1.98h-3.01l.38-1.53c.13-.46.12-.77,0-.93-.12-.15-.48-.24-1.06-.24h-1.12s-2.04,7.98-2.15,8.39c-.1.3-.22.56-.43.76-.26.26-.65.43-1.21.43h-1.85l3.07-11.86Z"/>
        <path class="cls-1" d="M206.76,3.26h-7.33L200.36,0h18.58l-.94,3.25h-7.24s-3.99,15.26-4.18,15.89c-.18.63-.84,1.61-2.11,1.61h-2.32l4.61-17.51Z"/>
        <path class="cls-1" d="M225,8.82h6.59c1.66,0,2.82.37,3.47,1.11.65.75.78,1.85.39,3.32l-1.93,7.4h-8.63c-1.23,0-2.08-.3-2.58-.89-.5-.59-.6-1.43-.32-2.52.35-1.34.98-2.3,1.88-2.88.9-.59,2.22-.88,3.97-.88h4.22l.09-.3c.18-.71.1-1.21-.25-1.5-.34-.29-1.06-.43-2.15-.43h-5.38l.63-2.43ZM226.81,18.27h4.02l.64-2.43h-3.78c-.75,0-1.29.1-1.64.3-.33.2-.56.54-.69,1.02-.11.41-.07.7.11.87.19.16.63.24,1.34.24Z"/>
        <path class="cls-1" d="M243.08,7.49h-3.38l.77-2.94h3.39l-.77,2.94ZM239.64,20.66h-3.39l3.1-11.83h3.38l-3.1,11.83Z"/>
        <path class="cls-1" d="M197.33,9.63c-.41-.47-1.04-.8-1.95-.8h-3.14c-2,0-3.65.5-4.94,1.5-1.3,1-2.21,2.47-2.71,4.42-.52,1.95-.39,3.42.38,4.41.77,1,2.16,1.5,4.17,1.5h4.7s.64-2.47.64-2.47h-4.27c-1.21,0-1.96-.15-2.26-.46-.29-.31-.33-.88-.15-1.73,0,0,4.16,0,6.08,0,.76,0,1.67-.14,2.22-.56.84-.63,1.08-1.63,1.08-1.63,0,0,.42-1.24.63-2.36.11-.59-.03-1.29-.49-1.82ZM193.83,13.53h-5.38c.25-.84.62-1.43,1.1-1.75.49-.32,1.32-.48,2.49-.48h3.16s-.25,1.19-.37,1.5c-.12.31-.37.73-1.01.73Z"/>
        <path class="cls-1" d="M270.64,9.63c-.39-.47-1.04-.8-1.94-.8h-3.14c-2.01,0-3.65.5-4.96,1.5-1.3,1-2.2,2.47-2.71,4.42-.51,1.95-.37,3.42.4,4.41.77,1,2.16,1.5,4.17,1.5h4.7s.65-2.47.65-2.47h-4.27c-1.21,0-1.97-.15-2.26-.46-.3-.31-.35-.88-.15-1.73,0,0,4.16,0,6.08,0,.76,0,1.68-.14,2.22-.56.84-.63,1.08-1.63,1.08-1.63,0,0,.42-1.24.63-2.36.11-.59-.04-1.29-.5-1.82ZM267.14,13.53h-5.38c.26-.84.62-1.43,1.11-1.75.49-.32,1.32-.48,2.49-.48h3.17s-.25,1.19-.37,1.5c-.11.31-.36.73-1.02.73Z"/>
        <path class="cls-1" d="M245.8,8.82h6.04c1.82,0,3.04.33,3.65,1,.61.66.71,1.77.31,3.32l-1.98,7.51h-3.22l1.87-7.13c.23-.88.25-1.46.04-1.72-.22-.27-.75-.39-1.59-.39h-2.56l-2.42,9.24h-3.23l3.1-11.83Z"/>
        <path class="cls-1" d="M154.73,8.82h2.25l1.12-4.27h3.22l-1.11,4.27h3.39l-.62,2.35h-3.39l-1.25,4.79c-.23.88-.23,1.49-.01,1.83.22.34.7.51,1.47.51h1.31l-.61,2.35h-2.93c-1.19,0-2.01-.32-2.48-.96-.47-.64-.55-1.56-.23-2.74l1.51-5.78h-2.26l.62-2.35Z"/>
        <path class="cls-1" d="M151.97,14.54c-.56,2.11-1.57,3.68-3.02,4.66-1.46.99-3.51,1.5-6.08,1.5h-11.99c.15-.54.77-2.9.86-3.23h11.39c1.37,0,2.38-.19,3.08-.59.69-.4,1.17-1.08,1.42-2.01.26-.99.16-1.71-.32-2.16-.45-.43-1.3-.64-2.59-.64h-5.47c-2.44,0-4.11-.46-4.98-1.38-.84-.9-1-2.38-.47-4.38.58-2.18,1.61-3.79,3.05-4.79,1.45-1,3.52-1.51,6.13-1.51h11.75c-.14.54-.76,2.9-.84,3.23h-11.22c-1.29,0-2.3.24-3.04.71-.75.48-1.26,1.25-1.54,2.27-.22.87-.11,1.54.36,2,.45.45,1.17.66,2.24.66h6.13c2.45,0,4.07.43,4.84,1.29.75.85.86,2.32.32,4.37Z"/>
        <path class="cls-1" d="M274.33,8.83h5.31c1.24,0,2.05.22,2.44.67.39.45.43,1.22.15,2.33l-.51,1.98h-3.02l.39-1.53c.12-.46.12-.77,0-.93-.13-.15-.48-.24-1.07-.24h-1.11s-2.03,7.98-2.15,8.39c-.1.3-.23.56-.43.76-.26.26-.65.43-1.21.43h-1.85l3.07-11.86Z"/>
      </g>
      <g>
        <path class="cls-1" d="M51.38,64.38c-1.35,5.15-3.83,8.97-7.35,11.37-3.55,2.42-8.54,3.64-14.84,3.64H0c.35-1.3,1.87-7.06,2.09-7.87h27.75c3.37,0,5.82-.47,7.49-1.45,1.7-1,2.88-2.65,3.47-4.91.63-2.4.37-4.18-.79-5.27-1.1-1.05-3.16-1.56-6.29-1.56h-13.34c-5.95,0-10.02-1.13-12.12-3.37-2.04-2.2-2.44-5.78-1.15-10.67,1.41-5.32,3.9-9.25,7.42-11.68,3.54-2.44,8.56-3.69,14.94-3.69h28.63c-.33,1.31-1.87,7.07-2.07,7.87h-27.34c-3.11,0-5.61.58-7.39,1.72-1.83,1.17-3.1,3.04-3.75,5.54-.55,2.12-.27,3.77.86,4.88,1.07,1.08,2.86,1.6,5.44,1.6h14.95c5.95,0,9.91,1.07,11.79,3.17,1.85,2.07,2.12,5.65.79,10.66Z"/>
        <path class="cls-1" d="M60.5,50.76h30.14c4.37,0,7.31.82,8.81,2.47,1.49,1.66,1.75,4.34.78,8.04l-4.82,18.22h-7.91l4.54-17.23c.56-2.11.6-3.5.1-4.17-.47-.69-1.75-1.02-3.8-1.02h-4.4l-5.93,22.43h-7.99l5.91-22.43h-9.18s-4.41,17.02-5.13,19.46c-.7,2.43-3.42,2.97-3.42,2.97h-5.28l7.57-28.74Z"/>
        <path class="cls-1" d="M112.01,50.76h16.07c4.05,0,6.88.9,8.45,2.7,1.58,1.79,1.91,4.47.98,8.02l-4.77,18.01h-21.09c-2.96,0-5.05-.73-6.26-2.16-1.21-1.44-1.47-3.49-.78-6.13.86-3.27,2.41-5.62,4.61-7.04,2.21-1.42,5.44-2.13,9.68-2.13h10.32l.18-.71c.45-1.69.25-2.88-.59-3.58-.86-.68-2.62-1.03-5.28-1.03h-13.1l1.58-5.95ZM116.37,73.75h9.82l1.58-5.96h-9.24c-1.83,0-3.17.24-3.99.72-.82.48-1.39,1.33-1.7,2.51-.27,1.02-.18,1.73.28,2.13.46.4,1.54.6,3.27.6Z"/>
        <path class="cls-1" d="M148.53,50.76h13.17c3.07,0,5.1.54,6.05,1.61.95,1.09,1.09,2.96.37,5.66l-1.27,4.79h-7.49l.98-3.7c.3-1.12.28-1.88-.03-2.25-.3-.38-1.18-.57-2.65-.57h-2.75l-5.36,20.31s-1.59,2.89-4.05,2.89h-4.56l7.58-28.74Z"/>
        <path class="cls-1" d="M338.76,50.76h13.18c3.07,0,5.09.54,6.05,1.61.95,1.09,1.08,2.96.36,5.66l-1.26,4.79h-7.49l.97-3.7c.3-1.12.29-1.88-.03-2.25-.3-.38-1.18-.57-2.65-.57h-2.75l-5.36,20.31s-1.59,2.89-4.05,2.89h-4.57l7.59-28.74Z"/>
        <path class="cls-1" d="M173.51,50.76h5.5l2.73-10.37h7.86l-2.74,10.37h8.3l-1.52,5.74h-8.28l-3.07,11.59c-.56,2.13-.57,3.6-.04,4.42.55.83,1.74,1.24,3.62,1.24h3.22l-1.51,5.75h-7.17c-2.89,0-4.92-.79-6.04-2.34-1.14-1.56-1.32-3.78-.56-6.68l3.69-13.98h-5.51l1.53-5.74Z"/>
        <path class="cls-1" d="M217.68,79.4c-4.09,0-7.25-.34-9.38-1-2.09-.65-3.96-1.77-5.55-3.32-2.05-1.98-3.32-4.62-3.78-7.82-.47-3.25-.09-7.24,1.12-11.82,2.37-8.91,6.13-15.57,11.22-19.79,5.08-4.2,11.9-6.34,20.28-6.34h17.73c-.33,1.29-1.74,6.64-1.95,7.43h-17.87c-4.82,0-8.71,1.5-11.63,4.47-2.87,2.92-5.18,7.74-6.93,14.33-1.55,5.89-1.61,9.95-.15,12.44,1.46,2.52,4.76,3.79,9.8,3.79h17.53c-.34,1.3-1.79,6.83-2.01,7.63h-18.42Z"/>
        <path class="cls-1" d="M272.25,65.15c-1.18,4.51-3.56,8.11-7.09,10.82-3.54,2.68-7.72,4.03-12.52,4.03s-8.28-1.35-10.43-4.06c-2.15-2.69-2.62-6.3-1.45-10.79,1.2-4.5,3.58-8.12,7.15-10.83,3.58-2.71,7.77-4.06,12.57-4.06s8.21,1.35,10.35,4.06c2.13,2.71,2.61,6.32,1.42,10.83ZM248.99,65.15c-.72,2.73-.63,4.85.29,6.39.92,1.52,2.56,2.29,4.93,2.29s4.39-.77,6.13-2.29c1.75-1.53,2.98-3.66,3.69-6.39.73-2.72.62-4.85-.31-6.37-.93-1.52-2.59-2.28-4.94-2.28s-4.38.76-6.11,2.29c-1.74,1.52-2.96,3.65-3.67,6.35Z"/>
        <path class="cls-1" d="M281.14,50.76h14.74c4.46,0,7.43.81,8.91,2.43,1.47,1.62,1.72,4.32.73,8.09l-4.81,18.22h-7.86l4.56-17.29c.57-2.15.59-3.55.08-4.19-.51-.64-1.81-.95-3.88-.95h-6.29l-5.14,19.52s-.55,2.91-3.31,2.91h-5.31l7.58-28.74Z"/>
        <path class="cls-1" d="M311.15,50.76h5.5l2.74-10.37h7.85l-2.73,10.37h8.29l-1.51,5.74h-8.29l-3.06,11.59c-.56,2.13-.57,3.6-.03,4.42.53.83,1.74,1.24,3.61,1.24h3.22l-1.53,5.75h-7.15c-2.91,0-4.92-.79-6.06-2.34-1.13-1.56-1.32-3.78-.55-6.68l3.69-13.98h-5.5l1.51-5.74Z"/>
        <path class="cls-1" d="M392.46,65.15c-1.2,4.51-3.56,8.11-7.1,10.82-3.55,2.68-7.72,4.03-12.52,4.03s-8.29-1.35-10.43-4.06c-2.15-2.69-2.64-6.3-1.44-10.79,1.19-4.5,3.56-8.12,7.15-10.83,3.57-2.71,7.75-4.06,12.56-4.06s8.21,1.35,10.35,4.06c2.13,2.71,2.61,6.32,1.42,10.83ZM369.19,65.15c-.71,2.73-.61,4.85.3,6.39.93,1.52,2.56,2.29,4.93,2.29s4.38-.77,6.13-2.29c1.73-1.53,2.98-3.66,3.7-6.39.72-2.72.61-4.85-.32-6.37-.94-1.52-2.58-2.28-4.94-2.28s-4.4.76-6.12,2.29c-1.74,1.52-2.96,3.65-3.68,6.35Z"/>
        <path class="cls-1" d="M402.97,79.5h-8.15l10.33-39.11h8.15l-10.32,39.11Z"/>
      </g>
      <path class="cls-1" d="M158.69,34.89c2.59,0,4.58,1.97,4.58,4.49s-2,4.53-4.58,4.53-4.58-1.99-4.58-4.53,2.08-4.49,4.58-4.49ZM158.69,43.01c2.02,0,3.5-1.6,3.5-3.62s-1.51-3.64-3.53-3.64-3.49,1.63-3.49,3.64c0,2.17,1.67,3.62,3.52,3.62ZM156.96,41.73v-4.55c.42-.07.97-.15,1.68-.15.81,0,1.99.15,1.99,1.34,0,.54-.41.91-.93,1.06v.07c.44.15.66.52.8,1.1.14.69.24.96.34,1.13h-1.04c-.12-.17-.21-.57-.34-1.13-.17-.72-.56-.72-1.51-.72v1.85h-.99ZM157.98,39.17c.77,0,1.6,0,1.6-.69,0-.42-.3-.72-1.01-.72-.3,0-.5.03-.59.05v1.36Z"/>
      <g>
        <g>
          <path class="cls-1" d="M72.49,36.19c1.13.38,1.55,1.53,1.48,3.21-.09,2.22-.1,3.57.06,4.15h-1.79c-.13-.44-.12-1.79-.03-3.71.11-2.14-.51-3.08-2.39-3.08h-1.94l-1.82,6.79h-1.73l4.05-15.13c1.03-.2,2.44-.32,3.7-.32,2.07,0,3.31.4,4.03,1.25.57.66.73,1.71.42,2.86-.55,2.04-2.17,3.35-4.02,3.93l-.02.06ZM70.26,35.47c2.21,0,3.95-1.21,4.45-3.06.61-2.28-.97-2.98-2.91-2.98-.94,0-1.63.08-2,.16l-1.58,5.89h2.04Z"/>
          <path class="cls-1" d="M84.45,43.08c-.73.3-2.02.69-3.75.69-3.32,0-4.7-2.26-3.82-5.54.92-3.45,3.59-5.92,6.66-5.92,3.5,0,3.57,3.1,3.06,5.02-.1.38-.2.66-.29.93h-7.74c-.8,3.04.69,4.19,2.74,4.19,1.42,0,2.35-.28,3.13-.56v1.21ZM84.97,37c.42-1.49.29-3.43-1.94-3.43-2.09,0-3.52,1.92-4.09,3.43h6.03Z"/>
          <path class="cls-1" d="M95.69,43.08c-.73.3-2.02.69-3.75.69-3.32,0-4.7-2.26-3.82-5.54.92-3.45,3.59-5.92,6.66-5.92,3.5,0,3.57,3.1,3.06,5.02-.1.38-.2.66-.29.93h-7.74c-.8,3.04.69,4.19,2.74,4.19,1.42,0,2.35-.28,3.13-.56v1.21ZM96.21,37c.42-1.49.29-3.43-1.94-3.43-2.09,0-3.52,1.92-4.09,3.43h6.03Z"/>
          <path class="cls-1" d="M100.48,43.55h-1.73l4.32-16.12h1.73l-4.32,16.12Z"/>
          <path class="cls-1" d="M117.15,43.55h-8.3l4.12-15.36h1.73l-3.73,13.93h6.58l-.38,1.43Z"/>
          <path class="cls-1" d="M126.68,43.08c-.73.3-2.02.69-3.75.69-3.32,0-4.69-2.26-3.81-5.54.92-3.45,3.59-5.92,6.66-5.92,3.5,0,3.57,3.1,3.06,5.02-.1.38-.2.66-.29.93h-7.74c-.79,3.04.69,4.19,2.74,4.19,1.42,0,2.35-.28,3.14-.56v1.21ZM127.21,37c.42-1.49.29-3.43-1.94-3.43-2.09,0-3.52,1.92-4.09,3.43h6.03Z"/>
          <path class="cls-1" d="M137.48,40.93c-.24.91-.47,1.85-.53,2.62h-1.59l.21-1.41h-.06c-.82.87-2.19,1.65-3.8,1.65-2.17,0-2.91-1.53-2.48-3.12.71-2.64,3.47-4.07,7.68-4.05.25-.93.81-3.02-1.78-3.02-.98,0-2.07.26-2.98.79l-.11-1.15c1.07-.58,2.44-.93,3.71-.93,3.21,0,3.46,2.2,2.87,4.37l-1.14,4.25ZM136.6,37.84c-2.15,0-4.92.3-5.54,2.62-.38,1.41.37,2.03,1.42,2.03,1.69,0,3.21-1.25,3.57-2.58l.56-2.07Z"/>
          <path class="cls-1" d="M149.6,40.83c-.24.89-.49,1.98-.65,2.72h-1.54l.42-1.87h-.06c-.89,1.15-2.44,2.12-4.28,2.12-2.63,0-4.08-2.2-3.18-5.58.99-3.71,3.83-5.89,6.48-5.89,1.67,0,2.59.79,2.86,1.69h.04l1.77-6.59h1.73l-3.59,13.4ZM148.91,36.96c.59-2.2-.72-3.28-2.18-3.28-2.15,0-3.94,1.93-4.62,4.45-.62,2.32-.02,4.29,2.21,4.29,1.88,0,3.56-1.59,4.03-3.35l.57-2.12Z"/>
        </g>
        <g>
          <path class="cls-1" d="M72.49,36.19c1.13.38,1.55,1.53,1.48,3.21-.09,2.22-.1,3.57.06,4.15h-1.79c-.13-.44-.12-1.79-.03-3.71.11-2.14-.51-3.08-2.39-3.08h-1.94l-1.82,6.79h-1.73l4.05-15.13c1.03-.2,2.44-.32,3.7-.32,2.07,0,3.31.4,4.03,1.25.57.66.73,1.71.42,2.86-.55,2.04-2.17,3.35-4.02,3.93l-.02.06ZM70.26,35.47c2.21,0,3.95-1.21,4.45-3.06.61-2.28-.97-2.98-2.91-2.98-.94,0-1.63.08-2,.16l-1.58,5.89h2.04Z"/>
          <path class="cls-1" d="M84.45,43.08c-.73.3-2.02.69-3.75.69-3.32,0-4.7-2.26-3.82-5.54.92-3.45,3.59-5.92,6.66-5.92,3.5,0,3.57,3.1,3.06,5.02-.1.38-.2.66-.29.93h-7.74c-.8,3.04.69,4.19,2.74,4.19,1.42,0,2.35-.28,3.13-.56v1.21ZM84.97,37c.42-1.49.29-3.43-1.94-3.43-2.09,0-3.52,1.92-4.09,3.43h6.03Z"/>
          <path class="cls-1" d="M95.69,43.08c-.73.3-2.02.69-3.75.69-3.32,0-4.7-2.26-3.82-5.54.92-3.45,3.59-5.92,6.66-5.92,3.5,0,3.57,3.1,3.06,5.02-.1.38-.2.66-.29.93h-7.74c-.8,3.04.69,4.19,2.74,4.19,1.42,0,2.35-.28,3.13-.56v1.21ZM96.21,37c.42-1.49.29-3.43-1.94-3.43-2.09,0-3.52,1.92-4.09,3.43h6.03Z"/>
          <path class="cls-1" d="M100.48,43.55h-1.73l4.32-16.12h1.73l-4.32,16.12Z"/>
          <path class="cls-1" d="M117.15,43.55h-8.3l4.12-15.36h1.73l-3.73,13.93h6.58l-.38,1.43Z"/>
          <path class="cls-1" d="M126.68,43.08c-.73.3-2.02.69-3.75.69-3.32,0-4.69-2.26-3.81-5.54.92-3.45,3.59-5.92,6.66-5.92,3.5,0,3.57,3.1,3.06,5.02-.1.38-.2.66-.29.93h-7.74c-.79,3.04.69,4.19,2.74,4.19,1.42,0,2.35-.28,3.14-.56v1.21ZM127.21,37c.42-1.49.29-3.43-1.94-3.43-2.09,0-3.52,1.92-4.09,3.43h6.03Z"/>
          <path class="cls-1" d="M137.48,40.93c-.24.91-.47,1.85-.53,2.62h-1.59l.21-1.41h-.06c-.82.87-2.19,1.65-3.8,1.65-2.17,0-2.91-1.53-2.48-3.12.71-2.64,3.47-4.07,7.68-4.05.25-.93.81-3.02-1.78-3.02-.98,0-2.07.26-2.98.79l-.11-1.15c1.07-.58,2.44-.93,3.71-.93,3.21,0,3.46,2.2,2.87,4.37l-1.14,4.25ZM136.6,37.84c-2.15,0-4.92.3-5.54,2.62-.38,1.41.37,2.03,1.42,2.03,1.69,0,3.21-1.25,3.57-2.58l.56-2.07Z"/>
          <path class="cls-1" d="M149.6,40.83c-.24.89-.49,1.98-.65,2.72h-1.54l.42-1.87h-.06c-.89,1.15-2.44,2.12-4.28,2.12-2.63,0-4.08-2.2-3.18-5.58.99-3.71,3.83-5.89,6.48-5.89,1.67,0,2.59.79,2.86,1.69h.04l1.77-6.59h1.73l-3.59,13.4ZM148.91,36.96c.59-2.2-.72-3.28-2.18-3.28-2.15,0-3.94,1.93-4.62,4.45-.62,2.32-.02,4.29,2.21,4.29,1.88,0,3.56-1.59,4.03-3.35l.57-2.12Z"/>
        </g>
        <g>
          <path class="cls-1" d="M72.49,36.19c1.13.38,1.55,1.53,1.48,3.21-.09,2.22-.1,3.57.06,4.15h-1.79c-.13-.44-.12-1.79-.03-3.71.11-2.14-.51-3.08-2.39-3.08h-1.94l-1.82,6.79h-1.73l4.05-15.13c1.03-.2,2.44-.32,3.7-.32,2.07,0,3.31.4,4.03,1.25.57.66.73,1.71.42,2.86-.55,2.04-2.17,3.35-4.02,3.93l-.02.06ZM70.26,35.47c2.21,0,3.95-1.21,4.45-3.06.61-2.28-.97-2.98-2.91-2.98-.94,0-1.63.08-2,.16l-1.58,5.89h2.04Z"/>
          <path class="cls-1" d="M84.45,43.08c-.73.3-2.02.69-3.75.69-3.32,0-4.7-2.26-3.82-5.54.92-3.45,3.59-5.92,6.66-5.92,3.5,0,3.57,3.1,3.06,5.02-.1.38-.2.66-.29.93h-7.74c-.8,3.04.69,4.19,2.74,4.19,1.42,0,2.35-.28,3.13-.56v1.21ZM84.97,37c.42-1.49.29-3.43-1.94-3.43-2.09,0-3.52,1.92-4.09,3.43h6.03Z"/>
          <path class="cls-1" d="M95.69,43.08c-.73.3-2.02.69-3.75.69-3.32,0-4.7-2.26-3.82-5.54.92-3.45,3.59-5.92,6.66-5.92,3.5,0,3.57,3.1,3.06,5.02-.1.38-.2.66-.29.93h-7.74c-.8,3.04.69,4.19,2.74,4.19,1.42,0,2.35-.28,3.13-.56v1.21ZM96.21,37c.42-1.49.29-3.43-1.94-3.43-2.09,0-3.52,1.92-4.09,3.43h6.03Z"/>
          <path class="cls-1" d="M100.48,43.55h-1.73l4.32-16.12h1.73l-4.32,16.12Z"/>
          <path class="cls-1" d="M117.15,43.55h-8.3l4.12-15.36h1.73l-3.73,13.93h6.58l-.38,1.43Z"/>
          <path class="cls-1" d="M126.68,43.08c-.73.3-2.02.69-3.75.69-3.32,0-4.69-2.26-3.81-5.54.92-3.45,3.59-5.92,6.66-5.92,3.5,0,3.57,3.1,3.06,5.02-.1.38-.2.66-.29.93h-7.74c-.79,3.04.69,4.19,2.74,4.19,1.42,0,2.35-.28,3.14-.56v1.21ZM127.21,37c.42-1.49.29-3.43-1.94-3.43-2.09,0-3.52,1.92-4.09,3.43h6.03Z"/>
          <path class="cls-1" d="M137.48,40.93c-.24.91-.47,1.85-.53,2.62h-1.59l.21-1.41h-.06c-.82.87-2.19,1.65-3.8,1.65-2.17,0-2.91-1.53-2.48-3.12.71-2.64,3.47-4.07,7.68-4.05.25-.93.81-3.02-1.78-3.02-.98,0-2.07.26-2.98.79l-.11-1.15c1.07-.58,2.44-.93,3.71-.93,3.21,0,3.46,2.2,2.87,4.37l-1.14,4.25ZM136.6,37.84c-2.15,0-4.92.3-5.54,2.62-.38,1.41.37,2.03,1.42,2.03,1.69,0,3.21-1.25,3.57-2.58l.56-2.07Z"/>
          <path class="cls-1" d="M149.6,40.83c-.24.89-.49,1.98-.65,2.72h-1.54l.42-1.87h-.06c-.89,1.15-2.44,2.12-4.28,2.12-2.63,0-4.08-2.2-3.18-5.58.99-3.71,3.83-5.89,6.48-5.89,1.67,0,2.59.79,2.86,1.69h.04l1.77-6.59h1.73l-3.59,13.4ZM148.91,36.96c.59-2.2-.72-3.28-2.18-3.28-2.15,0-3.94,1.93-4.62,4.45-.62,2.32-.02,4.29,2.21,4.29,1.88,0,3.56-1.59,4.03-3.35l.57-2.12Z"/>
        </g>
      </g>
    </g>
  </g>
</svg>