<?xml version="1.0" encoding="UTF-8"?>
<svg id="Layer_2" data-name="Layer 2" xmlns="http://www.w3.org/2000/svg" xmlns:xlink="http://www.w3.org/1999/xlink" viewBox="0 0 325.09 120">
  <defs>
    <style>
      .cls-1 {
        fill: #fff;
      }

      .cls-1, .cls-2, .cls-3, .cls-4 {
        stroke-width: 0px;
      }

      .cls-2 {
        fill: url(#_シルバー-2);
      }

      .cls-3 {
        fill: url(#_シルバー);
      }

      .cls-4 {
        fill: #211815;
      }
    </style>
    <linearGradient id="_シルバー" data-name="シルバー" x1="180.21" y1="56.14" x2="295.94" y2="56.14" gradientUnits="userSpaceOnUse">
      <stop offset="0" stop-color="#efeeeb"/>
      <stop offset="0" stop-color="#e9e7e3"/>
      <stop offset=".06" stop-color="#dad8d5"/>
      <stop offset=".18" stop-color="#b4b1b3"/>
      <stop offset=".26" stop-color="#989499"/>
      <stop offset=".52" stop-color="#f8f8f8"/>
      <stop offset=".59" stop-color="#e9e9e9"/>
      <stop offset=".71" stop-color="#c4c2c3"/>
      <stop offset=".88" stop-color="#8c878a"/>
      <stop offset="1" stop-color="#dbdcdc"/>
      <stop offset="1" stop-color="#b4b4b5"/>
    </linearGradient>
    <linearGradient id="_シルバー-2" data-name="シルバー" x1="180.21" y1="56.14" x2="295.94" y2="56.14" xlink:href="#_シルバー"/>
  </defs>
  <g id="Design">
    <g>
      <rect class="cls-4" width="325.09" height="120"/>
      <g>
        <g>
          <g>
            <path class="cls-1" d="M166.37,71.17c3.5,0,6.19,2.67,6.19,6.06,0,3.42-2.7,6.12-6.19,6.12-3.46,0-6.19-2.69-6.19-6.12,0-3.46,2.81-6.06,6.19-6.06ZM166.37,82.15c2.73,0,4.74-2.16,4.74-4.89,0-2.72-2.04-4.92-4.77-4.92-2.69,0-4.72,2.2-4.72,4.92,0,2.94,2.26,4.89,4.75,4.89ZM164.04,80.42v-6.15c.57-.1,1.31-.2,2.27-.2,1.1,0,2.69.2,2.69,1.81,0,.72-.56,1.23-1.26,1.43v.1c.6.2.89.7,1.08,1.49.19.94.33,1.3.45,1.53h-1.4c-.16-.23-.29-.77-.46-1.53-.24-.97-.76-.97-2.04-.97v2.5s-1.33,0-1.33,0ZM165.4,76.96c1.04,0,2.17,0,2.17-.93,0-.56-.4-.97-1.37-.97-.4,0-.67.04-.8.06v1.83Z"/>
            <g>
              <g>
                <path class="cls-1" d="M49.73,73.45c1.52.52,2.09,2.07,2,4.33-.13,2.99-.13,4.82.07,5.61h-2.42c-.18-.6-.17-2.42-.04-5.01.15-2.88-.69-4.16-3.22-4.16h-2.62s-2.46,9.17-2.46,9.17h-2.34s5.48-20.44,5.48-20.44c1.4-.27,3.3-.44,4.99-.44,2.79,0,4.47.54,5.44,1.69.77.9.98,2.31.57,3.87-.74,2.75-2.93,4.52-5.43,5.3l-.02.08ZM46.72,72.47c2.98,0,5.34-1.63,6.01-4.14.82-3.07-1.31-4.03-3.94-4.03-1.27,0-2.2.11-2.7.22l-2.13,7.95h2.76Z"/>
                <path class="cls-1" d="M65.89,82.76c-.98.41-2.73.92-5.07.92-4.48,0-6.34-3.05-5.15-7.48,1.25-4.65,4.85-8,8.99-8,4.73,0,4.82,4.19,4.13,6.78-.14.52-.27.9-.39,1.25h-10.45c-1.07,4.11.93,5.66,3.69,5.66,1.92,0,3.17-.38,4.23-.76v1.63ZM66.6,74.54c.57-2.01.39-4.62-2.62-4.62-2.81,0-4.75,2.58-5.52,4.62h8.14Z"/>
                <path class="cls-1" d="M81.08,82.76c-.98.41-2.73.92-5.07.92-4.48,0-6.34-3.05-5.15-7.48,1.25-4.65,4.85-8,8.99-8,4.73,0,4.82,4.19,4.13,6.78-.14.52-.27.9-.39,1.25h-10.45c-1.07,4.11.93,5.66,3.69,5.66,1.92,0,3.17-.38,4.23-.76v1.63ZM81.79,74.54c.57-2.01.39-4.62-2.62-4.62-2.82,0-4.75,2.58-5.52,4.62h8.14Z"/>
                <path class="cls-1" d="M87.57,83.38h-2.34s5.84-21.77,5.84-21.77h2.34s-5.84,21.77-5.84,21.77Z"/>
                <path class="cls-1" d="M110.08,83.38h-11.21s5.56-20.73,5.56-20.73h2.34s-5.04,18.8-5.04,18.8h8.87s-.52,1.93-.52,1.93Z"/>
                <path class="cls-1" d="M122.96,82.76c-.98.41-2.73.92-5.07.92-4.48,0-6.34-3.05-5.15-7.48,1.25-4.65,4.85-8,8.99-8,4.73,0,4.82,4.19,4.13,6.78-.14.52-.27.9-.39,1.25h-10.45c-1.07,4.11.93,5.66,3.69,5.66,1.92,0,3.17-.38,4.23-.76v1.63ZM123.67,74.54c.57-2.01.39-4.62-2.62-4.62-2.82,0-4.75,2.58-5.52,4.62h8.14Z"/>
                <path class="cls-1" d="M137.56,79.85c-.33,1.22-.64,2.5-.72,3.54h-2.14s.29-1.9.29-1.9h-.09c-1.1,1.17-2.97,2.23-5.13,2.23-2.93,0-3.92-2.07-3.35-4.22.96-3.56,4.68-5.5,10.37-5.47.34-1.25,1.09-4.08-2.4-4.08-1.32,0-2.8.35-4.03,1.06l-.15-1.55c1.45-.79,3.3-1.25,5.01-1.25,4.34,0,4.67,2.97,3.89,5.91l-1.54,5.74ZM136.36,75.68c-2.9,0-6.65.41-7.48,3.54-.51,1.91.5,2.75,1.91,2.75,2.28,0,4.34-1.69,4.82-3.48l.75-2.8Z"/>
                <path class="cls-1" d="M153.94,79.71c-.32,1.2-.66,2.66-.87,3.67h-2.08s.57-2.53.57-2.53h-.09c-1.2,1.55-3.3,2.86-5.78,2.86-3.55,0-5.52-2.97-4.29-7.54,1.34-5.01,5.17-7.95,8.75-7.95,2.25,0,3.49,1.06,3.87,2.29h.06s2.38-8.9,2.38-8.9h2.34s-4.85,18.1-4.85,18.1ZM153,74.49c.79-2.97-.98-4.44-2.95-4.44-2.9,0-5.32,2.61-6.23,6.01-.84,3.13-.03,5.8,2.98,5.8,2.54,0,4.8-2.15,5.44-4.52l.77-2.86Z"/>
              </g>
              <g>
                <path class="cls-1" d="M49.73,73.45c1.52.52,2.09,2.07,2,4.33-.13,2.99-.13,4.82.07,5.61h-2.42c-.18-.6-.17-2.42-.04-5.01.15-2.88-.69-4.16-3.22-4.16h-2.62s-2.46,9.17-2.46,9.17h-2.34s5.48-20.44,5.48-20.44c1.4-.27,3.3-.44,4.99-.44,2.79,0,4.47.54,5.44,1.69.77.9.98,2.31.57,3.87-.74,2.75-2.93,4.52-5.43,5.3l-.02.08ZM46.72,72.47c2.98,0,5.34-1.63,6.01-4.14.82-3.07-1.31-4.03-3.94-4.03-1.27,0-2.2.11-2.7.22l-2.13,7.95h2.76Z"/>
                <path class="cls-1" d="M65.89,82.76c-.98.41-2.73.92-5.07.92-4.48,0-6.34-3.05-5.15-7.48,1.25-4.65,4.85-8,8.99-8,4.73,0,4.82,4.19,4.13,6.78-.14.52-.27.9-.39,1.25h-10.45c-1.07,4.11.93,5.66,3.69,5.66,1.92,0,3.17-.38,4.23-.76v1.63ZM66.6,74.54c.57-2.01.39-4.62-2.62-4.62-2.81,0-4.75,2.58-5.52,4.62h8.14Z"/>
                <path class="cls-1" d="M81.08,82.76c-.98.41-2.73.92-5.07.92-4.48,0-6.34-3.05-5.15-7.48,1.25-4.65,4.85-8,8.99-8,4.73,0,4.82,4.19,4.13,6.78-.14.52-.27.9-.39,1.25h-10.45c-1.07,4.11.93,5.66,3.69,5.66,1.92,0,3.17-.38,4.23-.76v1.63ZM81.79,74.54c.57-2.01.39-4.62-2.62-4.62-2.82,0-4.75,2.58-5.52,4.62h8.14Z"/>
                <path class="cls-1" d="M87.57,83.38h-2.34s5.84-21.77,5.84-21.77h2.34s-5.84,21.77-5.84,21.77Z"/>
                <path class="cls-1" d="M110.08,83.38h-11.21s5.56-20.73,5.56-20.73h2.34s-5.04,18.8-5.04,18.8h8.87s-.52,1.93-.52,1.93Z"/>
                <path class="cls-1" d="M122.96,82.76c-.98.41-2.73.92-5.07.92-4.48,0-6.34-3.05-5.15-7.48,1.25-4.65,4.85-8,8.99-8,4.73,0,4.82,4.19,4.13,6.78-.14.52-.27.9-.39,1.25h-10.45c-1.07,4.11.93,5.66,3.69,5.66,1.92,0,3.17-.38,4.23-.76v1.63ZM123.67,74.54c.57-2.01.39-4.62-2.62-4.62-2.82,0-4.75,2.58-5.52,4.62h8.14Z"/>
                <path class="cls-1" d="M137.56,79.85c-.33,1.22-.64,2.5-.72,3.54h-2.14s.29-1.9.29-1.9h-.09c-1.1,1.17-2.97,2.23-5.13,2.23-2.93,0-3.92-2.07-3.35-4.22.96-3.56,4.68-5.5,10.37-5.47.34-1.25,1.09-4.08-2.4-4.08-1.32,0-2.8.35-4.03,1.06l-.15-1.55c1.45-.79,3.3-1.25,5.01-1.25,4.34,0,4.67,2.97,3.89,5.91l-1.54,5.74ZM136.36,75.68c-2.9,0-6.65.41-7.48,3.54-.51,1.91.5,2.75,1.91,2.75,2.28,0,4.34-1.69,4.82-3.48l.75-2.8Z"/>
                <path class="cls-1" d="M153.94,79.71c-.32,1.2-.66,2.66-.87,3.67h-2.08s.57-2.53.57-2.53h-.09c-1.2,1.55-3.3,2.86-5.78,2.86-3.55,0-5.52-2.97-4.29-7.54,1.34-5.01,5.17-7.95,8.75-7.95,2.25,0,3.49,1.06,3.87,2.29h.06s2.38-8.9,2.38-8.9h2.34s-4.85,18.1-4.85,18.1ZM153,74.49c.79-2.97-.98-4.44-2.95-4.44-2.9,0-5.32,2.61-6.23,6.01-.84,3.13-.03,5.8,2.98,5.8,2.54,0,4.8-2.15,5.44-4.52l.77-2.86Z"/>
              </g>
              <g>
                <path class="cls-1" d="M49.73,73.45c1.52.52,2.09,2.07,2,4.33-.13,2.99-.13,4.82.07,5.61h-2.42c-.18-.6-.17-2.42-.04-5.01.15-2.88-.69-4.16-3.22-4.16h-2.62s-2.46,9.17-2.46,9.17h-2.34s5.48-20.44,5.48-20.44c1.4-.27,3.3-.44,4.99-.44,2.79,0,4.47.54,5.44,1.69.77.9.98,2.31.57,3.87-.74,2.75-2.93,4.52-5.43,5.3l-.02.08ZM46.72,72.47c2.98,0,5.34-1.63,6.01-4.14.82-3.07-1.31-4.03-3.94-4.03-1.27,0-2.2.11-2.7.22l-2.13,7.95h2.76Z"/>
                <path class="cls-1" d="M65.89,82.76c-.98.41-2.73.92-5.07.92-4.48,0-6.34-3.05-5.15-7.48,1.25-4.65,4.85-8,8.99-8,4.73,0,4.82,4.19,4.13,6.78-.14.52-.27.9-.39,1.25h-10.45c-1.07,4.11.93,5.66,3.69,5.66,1.92,0,3.17-.38,4.23-.76v1.63ZM66.6,74.54c.57-2.01.39-4.62-2.62-4.62-2.81,0-4.75,2.58-5.52,4.62h8.14Z"/>
                <path class="cls-1" d="M81.08,82.76c-.98.41-2.73.92-5.07.92-4.48,0-6.34-3.05-5.15-7.48,1.25-4.65,4.85-8,8.99-8,4.73,0,4.82,4.19,4.13,6.78-.14.52-.27.9-.39,1.25h-10.45c-1.07,4.11.93,5.66,3.69,5.66,1.92,0,3.17-.38,4.23-.76v1.63ZM81.79,74.54c.57-2.01.39-4.62-2.62-4.62-2.82,0-4.75,2.58-5.52,4.62h8.14Z"/>
                <path class="cls-1" d="M87.57,83.38h-2.34s5.84-21.77,5.84-21.77h2.34s-5.84,21.77-5.84,21.77Z"/>
                <path class="cls-1" d="M110.08,83.38h-11.21s5.56-20.73,5.56-20.73h2.34s-5.04,18.8-5.04,18.8h8.87s-.52,1.93-.52,1.93Z"/>
                <path class="cls-1" d="M122.96,82.76c-.98.41-2.73.92-5.07.92-4.48,0-6.34-3.05-5.15-7.48,1.25-4.65,4.85-8,8.99-8,4.73,0,4.82,4.19,4.13,6.78-.14.52-.27.9-.39,1.25h-10.45c-1.07,4.11.93,5.66,3.69,5.66,1.92,0,3.17-.38,4.23-.76v1.63ZM123.67,74.54c.57-2.01.39-4.62-2.62-4.62-2.82,0-4.75,2.58-5.52,4.62h8.14Z"/>
                <path class="cls-1" d="M137.56,79.85c-.33,1.22-.64,2.5-.72,3.54h-2.14s.29-1.9.29-1.9h-.09c-1.1,1.17-2.97,2.23-5.13,2.23-2.93,0-3.92-2.07-3.35-4.22.96-3.56,4.68-5.5,10.37-5.47.34-1.25,1.09-4.08-2.4-4.08-1.32,0-2.8.35-4.03,1.06l-.15-1.55c1.45-.79,3.3-1.25,5.01-1.25,4.34,0,4.67,2.97,3.89,5.91l-1.54,5.74ZM136.36,75.68c-2.9,0-6.65.41-7.48,3.54-.51,1.91.5,2.75,1.91,2.75,2.28,0,4.34-1.69,4.82-3.48l.75-2.8Z"/>
                <path class="cls-1" d="M153.94,79.71c-.32,1.2-.66,2.66-.87,3.67h-2.08s.57-2.53.57-2.53h-.09c-1.2,1.55-3.3,2.86-5.78,2.86-3.55,0-5.52-2.97-4.29-7.54,1.34-5.01,5.17-7.95,8.75-7.95,2.25,0,3.49,1.06,3.87,2.29h.06s2.38-8.9,2.38-8.9h2.34s-4.85,18.1-4.85,18.1ZM153,74.49c.79-2.97-.98-4.44-2.95-4.44-2.9,0-5.32,2.61-6.23,6.01-.84,3.13-.03,5.8,2.98,5.8,2.54,0,4.8-2.15,5.44-4.52l.77-2.86Z"/>
              </g>
            </g>
          </g>
          <g>
            <path class="cls-1" d="M43.01,51.78c1.26,0,1.9.71,1.9,2.07,0,.6-.06,1.57-1.08,1.9.8.2.98.85.98,1.63v.72c0,.84.1,1.21.15,1.38h-1.08c-.1-.45-.1-1.06-.1-1.21v-.75c0-1.26-.63-1.26-1.16-1.26h-2.24v3.22h-1.04v-7.7h3.67ZM40.38,52.84v2.38h2.32c.59,0,1.15-.09,1.15-1.26,0-.92-.41-1.12-1.12-1.12h-2.36Z"/>
            <path class="cls-1" d="M51.04,51.78v1.06h-4.05v2.2h3.85v1.03h-3.85v2.36h4.11v1.05h-5.15v-7.7h5.09Z"/>
            <path class="cls-1" d="M57.3,51.78v1.06h-2.38v6.64h-1.05v-6.64h-2.38v-1.06h5.81Z"/>
            <path class="cls-1" d="M61.71,51.78c1.26,0,1.9.71,1.9,2.07,0,.6-.06,1.57-1.08,1.9.8.2.98.85.98,1.63v.72c0,.84.1,1.21.15,1.38h-1.08c-.1-.45-.1-1.06-.1-1.21v-.75c0-1.26-.63-1.26-1.16-1.26h-2.24v3.22h-1.04v-7.7h3.67ZM59.08,52.84v2.38h2.32c.59,0,1.15-.09,1.15-1.26,0-.92-.41-1.12-1.12-1.12h-2.36Z"/>
            <path class="cls-1" d="M71.05,59.48h-1.19l-.63-1.88h-3.15l-.63,1.88h-1.19l2.7-7.7h1.39l2.71,7.7ZM66.39,56.59h2.52l-1.27-3.73-1.26,3.73Z"/>
            <path class="cls-1" d="M76.72,54.41c0-1.48-.74-1.66-1.86-1.66-1.71,0-2.01.5-2.01,3.02,0,2.05.19,2.74,2.04,2.74,1.4,0,1.87-.22,1.88-1.84h1.05c-.03,2.21-.89,2.88-2.8,2.88-2.55,0-3.22-.85-3.22-3.91,0-2.78.52-3.95,3.02-3.95,1.71,0,2.9.39,2.94,2.71h-1.05Z"/>
            <path class="cls-1" d="M84.3,51.78v1.06h-2.38v6.64h-1.05v-6.64h-2.38v-1.06h5.81Z"/>
            <path class="cls-1" d="M91.39,59.48h-1.19l-.63-1.88h-3.16l-.63,1.88h-1.19l2.7-7.7h1.39l2.71,7.7ZM86.73,56.59h2.52l-1.27-3.73-1.26,3.73Z"/>
            <path class="cls-1" d="M95.87,51.78c1.44,0,1.75,1.14,1.75,2.01,0,.67-.18,1.38-.91,1.67.68.22,1.14.58,1.14,1.86s-.32,2.16-1.92,2.16h-3.71v-7.7h3.66ZM93.22,52.81v2.24h2.26c.97,0,1.09-.5,1.09-1.21,0-.82-.34-1.03-1.05-1.03h-2.29ZM93.22,56.04v2.41h2.52c.64,0,1.06-.18,1.06-1.21,0-1.2-.72-1.2-1.19-1.2h-2.4Z"/>
            <path class="cls-1" d="M99.9,51.78v6.64h3.72v1.05h-4.76v-7.7h1.05Z"/>
            <path class="cls-1" d="M109.45,51.78v1.06h-4.05v2.2h3.85v1.03h-3.85v2.36h4.11v1.05h-5.15v-7.7h5.09Z"/>
            <path class="cls-1" d="M116.63,51.78c1.74,0,2.82.46,2.82,3.88,0,2.55-.49,3.82-2.62,3.82h-3.52v-7.7h3.31ZM114.36,52.84v5.58h2.34c1.44,0,1.7-.6,1.7-2.82s-.47-2.75-1.78-2.75h-2.27Z"/>
            <path class="cls-1" d="M126.55,55.63c0,2.68-.46,3.93-2.98,3.93-2.38,0-3.22-.62-3.22-3.93,0-2.98.62-3.93,3.09-3.93s3.1.82,3.1,3.93ZM121.41,55.63c0,2.35.22,2.88,2.14,2.88s1.94-.87,1.94-2.88c0-2.22-.18-2.88-2.05-2.88s-2.04.7-2.04,2.88Z"/>
            <path class="cls-1" d="M132.6,54.3c0-1.44-.83-1.54-2.01-1.54-1.71,0-2,.52-2,2.97,0,2.06.11,2.77,2.06,2.77,1.21,0,2-.14,2-1.62v-.48h-2.12v-.99h3.16v.7c0,2.03-.11,3.44-2.96,3.44-2.24,0-3.18-.55-3.18-3.76,0-2.62.26-4.09,3.02-4.09,1.38,0,3.09.14,3.09,2.6h-1.05Z"/>
            <path class="cls-1" d="M138.78,51.78v6.64h3.72v1.05h-4.76v-7.7h1.05Z"/>
            <path class="cls-1" d="M148.33,51.78v1.06h-4.05v2.2h3.85v1.03h-3.85v2.36h4.11v1.05h-5.15v-7.7h5.09Z"/>
            <path class="cls-1" d="M155.65,59.48h-1.19l-.63-1.88h-3.16l-.63,1.88h-1.19l2.7-7.7h1.39l2.71,7.7ZM150.99,56.59h2.52l-1.27-3.73-1.26,3.73Z"/>
            <path class="cls-1" d="M160.73,54.15c0-1-.23-1.44-1.71-1.44-.96,0-1.66.12-1.66,1.25,0,.69.35.91.9.97l1.95.22c.72.09,1.85.31,1.85,2.12,0,2.19-1.67,2.29-2.85,2.29-2.25,0-2.89-.7-2.93-2.64h1.05c0,1.1.19,1.59,1.9,1.59,1.31,0,1.79-.26,1.79-1.24,0-.9-.46-1.06-.95-1.12l-2.19-.25c-1.34-.16-1.52-1.33-1.52-2.01,0-2.18,1.82-2.18,2.6-2.18,2.61,0,2.78,1.09,2.8,2.44h-1.04Z"/>
            <path class="cls-1" d="M164.15,51.78v3.2h3.86v-3.2h1.04v7.7h-1.04v-3.44h-3.86v3.44h-1.05v-7.7h1.05Z"/>
          </g>
        </g>
        <g>
          <path class="cls-3" d="M234.34,39.28h-28.36c-2.76,0-3.86.95-4.49,3.7l-1.58,7.64h31.36s-2.21,10.24-2.21,10.24h-31.36s-1.81,8.43-1.81,8.43c-.08.55-.16,1.1-.16,1.5,0,1.65.87,2.21,3.07,2.21h28.68s-2.28,10.71-2.28,10.71h-38.21c-4.33,0-6.78-2.36-6.78-6.15,0-.71.08-1.5.24-2.28l8.11-38.21c1.26-5.91,4.25-8.51,10.16-8.51h37.89s-2.28,10.71-2.28,10.71Z"/>
          <path class="cls-2" d="M268.76,83.71l-8.51-18.04-16.23,18.04h-17.57s27.02-27.97,27.02-27.97l-14.65-27.18h15.99s8.04,17.33,8.04,17.33l15.44-17.33h17.65s-26.16,27.18-26.16,27.18l15.05,27.97h-16.07Z"/>
        </g>
      </g>
    </g>
  </g>
</svg>