<?xml version="1.0" encoding="UTF-8"?>
<svg id="Layer_2" data-name="Layer 2" xmlns="http://www.w3.org/2000/svg" viewBox="0 0 191.09 100">
  <defs>
    <style>
      .cls-1 {
        fill: #fff;
      }

      .cls-1, .cls-2 {
        stroke-width: 0px;
      }

      .cls-2 {
        fill: #211815;
      }
    </style>
  </defs>
  <g id="Back">
    <g>
      <g>
        <path class="cls-2" d="M.16,25.89h24.36c5.67,0,9.83,1.14,12.49,3.43,2.62,2.35,3.92,5.98,3.92,10.88,0,3.56-.81,6.5-2.44,8.83-1.6,2.35-3.97,3.87-7.09,4.55l11.73,19.84h-11.14l-10.32-18.62h-11.67v18.62H.16V25.89ZM22.15,34.43h-12.13v11.93h12.16c3.23,0,5.5-.48,6.82-1.45,1.3-.88,1.95-2.41,1.95-4.58s-.64-3.64-1.91-4.58c-1.3-.88-3.59-1.32-6.89-1.32Z"/>
        <path class="cls-2" d="M45.57,49.2c0-8.15,1.94-14.23,5.83-18.23,3.82-3.98,9.71-5.97,17.67-5.97s13.88,2.03,17.7,6.1c3.82,4.04,5.74,10.23,5.74,18.56s-1.91,14.58-5.74,18.62c-3.87,4.09-9.77,6.13-17.7,6.13s-14.02-2.04-17.8-6.13c-3.8-4.04-5.7-10.4-5.7-19.08ZM69.07,33.11c-4.22,0-7.39,1.35-9.53,4.05-2.11,2.7-3.16,6.73-3.16,12.09,0,5.8,1.01,10.06,3.03,12.81,2.04,2.74,5.26,4.12,9.66,4.12s7.53-1.37,9.59-4.12c2.07-2.7,3.1-6.84,3.1-12.41s-1.03-9.74-3.1-12.48c-2.07-2.7-5.26-4.05-9.59-4.05Z"/>
        <path class="cls-2" d="M111.32,25.89h10.55l20.04,47.53h-11.01l-4.32-11.27h-20.44l-4.19,11.27h-10.48l19.84-47.53ZM116.2,35.42l-6.82,18.23h13.98l-7.15-18.23Z"/>
        <path class="cls-2" d="M145.24,25.89h21.52c7.51,0,13.1,2,16.74,6,3.6,4.02,5.4,10.23,5.4,18.62,0,4.33-.6,8.04-1.81,11.14-.64,1.63-1.38,3.05-2.24,4.27-.86,1.22-1.91,2.32-3.16,3.31-1.89,1.47-3.88,2.55-5.97,3.23-2.15.64-5.05.96-8.7.96h-21.79V25.89ZM166.57,34.2h-11.47v30.92h11.47c4.37,0,7.39-1.1,9.05-3.31,1.66-2.21,2.49-6.26,2.49-12.15s-.81-9.79-2.44-12.1c-1.65-2.24-4.68-3.36-9.1-3.36Z"/>
      </g>
      <rect class="cls-2" y="81.48" width="191.09" height="18.52"/>
      <g>
        <g>
          <path class="cls-2" d="M50.12,10.41c1.34.45,1.84,1.82,1.76,3.8-.11,2.63-.12,4.23.07,4.93h-2.13c-.16-.53-.15-2.13-.03-4.4.14-2.53-.6-3.66-2.83-3.66h-2.3l-2.16,8.06h-2.06L45.24,1.17c1.23-.24,2.9-.38,4.39-.38,2.45,0,3.93.48,4.78,1.48.68.79.87,2.03.5,3.4-.65,2.42-2.57,3.97-4.77,4.67l-.02.07ZM47.48,9.54c2.63,0,4.69-1.44,5.28-3.64.72-2.7-1.16-3.54-3.46-3.54-1.11,0-1.93.1-2.38.19l-1.87,6.98h2.42Z"/>
          <path class="cls-2" d="M64.32,18.59c-.86.36-2.4.81-4.45.81-3.94,0-5.57-2.68-4.53-6.58,1.1-4.09,4.26-7.03,7.9-7.03,4.16,0,4.24,3.68,3.63,5.96-.12.46-.24.79-.35,1.1h-9.19c-.94,3.61.82,4.97,3.25,4.97,1.68,0,2.79-.34,3.72-.67v1.44ZM64.94,11.36c.5-1.77.35-4.07-2.3-4.07-2.48,0-4.17,2.27-4.85,4.07h7.16Z"/>
          <path class="cls-2" d="M77.66,18.59c-.86.36-2.4.81-4.45.81-3.94,0-5.57-2.68-4.53-6.58,1.1-4.09,4.26-7.03,7.9-7.03,4.16,0,4.24,3.68,3.63,5.96-.12.46-.24.79-.35,1.1h-9.19c-.94,3.61.82,4.97,3.25,4.97,1.69,0,2.79-.34,3.72-.67v1.44ZM78.28,11.36c.5-1.77.35-4.07-2.3-4.07-2.48,0-4.18,2.27-4.85,4.07h7.16Z"/>
          <path class="cls-2" d="M83.35,19.14h-2.06L86.42,0h2.06l-5.13,19.14Z"/>
          <path class="cls-2" d="M103.14,19.14h-9.86L98.16.91h2.06l-4.43,16.53h7.8l-.45,1.7Z"/>
          <path class="cls-2" d="M114.45,18.59c-.86.36-2.4.81-4.45.81-3.94,0-5.57-2.68-4.53-6.58,1.1-4.09,4.26-7.03,7.9-7.03,4.16,0,4.24,3.68,3.63,5.96-.12.46-.24.79-.35,1.1h-9.19c-.94,3.61.82,4.97,3.25,4.97,1.69,0,2.79-.34,3.72-.67v1.44ZM115.07,11.36c.5-1.77.35-4.07-2.3-4.07-2.48,0-4.18,2.27-4.85,4.07h7.16Z"/>
          <path class="cls-2" d="M127.26,16.03c-.29,1.08-.57,2.2-.64,3.11h-1.88l.25-1.67h-.07c-.97,1.03-2.61,1.96-4.51,1.96-2.58,0-3.45-1.82-2.94-3.71.84-3.13,4.12-4.83,9.11-4.81.29-1.1.96-3.59-2.11-3.59-1.16,0-2.46.31-3.54.93l-.13-1.36c1.28-.69,2.9-1.1,4.41-1.1,3.81,0,4.11,2.61,3.41,5.19l-1.35,5.05ZM126.21,12.37c-2.55,0-5.84.36-6.58,3.11-.45,1.67.44,2.41,1.68,2.41,2.01,0,3.82-1.48,4.24-3.06l.66-2.46Z"/>
          <path class="cls-2" d="M141.65,15.91c-.28,1.05-.58,2.34-.77,3.23h-1.83l.5-2.22h-.08c-1.06,1.36-2.9,2.51-5.08,2.51-3.12,0-4.85-2.61-3.77-6.63,1.18-4.4,4.55-6.98,7.69-6.98,1.98,0,3.07.93,3.4,2.01h.05l2.1-7.82h2.06l-4.26,15.91ZM140.83,11.31c.7-2.61-.86-3.9-2.6-3.9-2.55,0-4.68,2.3-5.48,5.29-.74,2.75-.03,5.09,2.62,5.09,2.23,0,4.22-1.89,4.78-3.97l.67-2.51Z"/>
        </g>
        <g>
          <g>
            <g>
              <path class="cls-2" d="M50.12,10.41c1.34.45,1.84,1.82,1.76,3.8-.11,2.63-.12,4.23.07,4.93h-2.13c-.16-.53-.15-2.13-.03-4.4.14-2.53-.6-3.66-2.83-3.66h-2.3l-2.16,8.06h-2.06L45.24,1.17c1.23-.24,2.9-.38,4.39-.38,2.45,0,3.93.48,4.78,1.48.68.79.87,2.03.5,3.4-.65,2.42-2.57,3.97-4.77,4.67l-.02.07ZM47.48,9.54c2.63,0,4.69-1.44,5.28-3.64.72-2.7-1.16-3.54-3.46-3.54-1.11,0-1.93.1-2.38.19l-1.87,6.98h2.42Z"/>
              <path class="cls-2" d="M64.32,18.59c-.86.36-2.4.81-4.45.81-3.94,0-5.57-2.68-4.53-6.58,1.1-4.09,4.26-7.03,7.9-7.03,4.16,0,4.24,3.68,3.63,5.96-.12.46-.24.79-.35,1.1h-9.19c-.94,3.61.82,4.97,3.25,4.97,1.68,0,2.79-.34,3.72-.67v1.44ZM64.94,11.36c.5-1.77.35-4.07-2.3-4.07-2.48,0-4.17,2.27-4.85,4.07h7.16Z"/>
              <path class="cls-2" d="M77.66,18.59c-.86.36-2.4.81-4.45.81-3.94,0-5.57-2.68-4.53-6.58,1.1-4.09,4.26-7.03,7.9-7.03,4.16,0,4.24,3.68,3.63,5.96-.12.46-.24.79-.35,1.1h-9.19c-.94,3.61.82,4.97,3.25,4.97,1.69,0,2.79-.34,3.72-.67v1.44ZM78.28,11.36c.5-1.77.35-4.07-2.3-4.07-2.48,0-4.18,2.27-4.85,4.07h7.16Z"/>
              <path class="cls-2" d="M83.35,19.14h-2.06L86.42,0h2.06l-5.13,19.14Z"/>
              <path class="cls-2" d="M103.14,19.14h-9.86L98.16.91h2.06l-4.43,16.53h7.8l-.45,1.7Z"/>
              <path class="cls-2" d="M114.45,18.59c-.86.36-2.4.81-4.45.81-3.94,0-5.57-2.68-4.53-6.58,1.1-4.09,4.26-7.03,7.9-7.03,4.16,0,4.24,3.68,3.63,5.96-.12.46-.24.79-.35,1.1h-9.19c-.94,3.61.82,4.97,3.25,4.97,1.69,0,2.79-.34,3.72-.67v1.44ZM115.07,11.36c.5-1.77.35-4.07-2.3-4.07-2.48,0-4.18,2.27-4.85,4.07h7.16Z"/>
              <path class="cls-2" d="M127.26,16.03c-.29,1.08-.57,2.2-.64,3.11h-1.88l.25-1.67h-.07c-.97,1.03-2.61,1.96-4.51,1.96-2.58,0-3.45-1.82-2.94-3.71.84-3.13,4.12-4.83,9.11-4.81.29-1.1.96-3.59-2.11-3.59-1.16,0-2.46.31-3.54.93l-.13-1.36c1.28-.69,2.9-1.1,4.41-1.1,3.81,0,4.11,2.61,3.41,5.19l-1.35,5.05ZM126.21,12.37c-2.55,0-5.84.36-6.58,3.11-.45,1.67.44,2.41,1.68,2.41,2.01,0,3.82-1.48,4.24-3.06l.66-2.46Z"/>
              <path class="cls-2" d="M141.65,15.91c-.28,1.05-.58,2.34-.77,3.23h-1.83l.5-2.22h-.08c-1.06,1.36-2.9,2.51-5.08,2.51-3.12,0-4.85-2.61-3.77-6.63,1.18-4.4,4.55-6.98,7.69-6.98,1.98,0,3.07.93,3.4,2.01h.05l2.1-7.82h2.06l-4.26,15.91ZM140.83,11.31c.7-2.61-.86-3.9-2.6-3.9-2.55,0-4.68,2.3-5.48,5.29-.74,2.75-.03,5.09,2.62,5.09,2.23,0,4.22-1.89,4.78-3.97l.67-2.51Z"/>
            </g>
            <g>
              <path class="cls-2" d="M50.12,10.41c1.34.45,1.84,1.82,1.76,3.8-.11,2.63-.12,4.23.07,4.93h-2.13c-.16-.53-.15-2.13-.03-4.4.14-2.53-.6-3.66-2.83-3.66h-2.3l-2.16,8.06h-2.06L45.24,1.17c1.23-.24,2.9-.38,4.39-.38,2.45,0,3.93.48,4.78,1.48.68.79.87,2.03.5,3.4-.65,2.42-2.57,3.97-4.77,4.67l-.02.07ZM47.48,9.54c2.63,0,4.69-1.44,5.28-3.64.72-2.7-1.16-3.54-3.46-3.54-1.11,0-1.93.1-2.38.19l-1.87,6.98h2.42Z"/>
              <path class="cls-2" d="M64.32,18.59c-.86.36-2.4.81-4.45.81-3.94,0-5.57-2.68-4.53-6.58,1.1-4.09,4.26-7.03,7.9-7.03,4.16,0,4.24,3.68,3.63,5.96-.12.46-.24.79-.35,1.1h-9.19c-.94,3.61.82,4.97,3.25,4.97,1.68,0,2.79-.34,3.72-.67v1.44ZM64.94,11.36c.5-1.77.35-4.07-2.3-4.07-2.48,0-4.17,2.27-4.85,4.07h7.16Z"/>
              <path class="cls-2" d="M77.66,18.59c-.86.36-2.4.81-4.45.81-3.94,0-5.57-2.68-4.53-6.58,1.1-4.09,4.26-7.03,7.9-7.03,4.16,0,4.24,3.68,3.63,5.96-.12.46-.24.79-.35,1.1h-9.19c-.94,3.61.82,4.97,3.25,4.97,1.69,0,2.79-.34,3.72-.67v1.44ZM78.28,11.36c.5-1.77.35-4.07-2.3-4.07-2.48,0-4.18,2.27-4.85,4.07h7.16Z"/>
              <path class="cls-2" d="M83.35,19.14h-2.06L86.42,0h2.06l-5.13,19.14Z"/>
              <path class="cls-2" d="M103.14,19.14h-9.86L98.16.91h2.06l-4.43,16.53h7.8l-.45,1.7Z"/>
              <path class="cls-2" d="M114.45,18.59c-.86.36-2.4.81-4.45.81-3.94,0-5.57-2.68-4.53-6.58,1.1-4.09,4.26-7.03,7.9-7.03,4.16,0,4.24,3.68,3.63,5.96-.12.46-.24.79-.35,1.1h-9.19c-.94,3.61.82,4.97,3.25,4.97,1.69,0,2.79-.34,3.72-.67v1.44ZM115.07,11.36c.5-1.77.35-4.07-2.3-4.07-2.48,0-4.18,2.27-4.85,4.07h7.16Z"/>
              <path class="cls-2" d="M127.26,16.03c-.29,1.08-.57,2.2-.64,3.11h-1.88l.25-1.67h-.07c-.97,1.03-2.61,1.96-4.51,1.96-2.58,0-3.45-1.82-2.94-3.71.84-3.13,4.12-4.83,9.11-4.81.29-1.1.96-3.59-2.11-3.59-1.16,0-2.46.31-3.54.93l-.13-1.36c1.28-.69,2.9-1.1,4.41-1.1,3.81,0,4.11,2.61,3.41,5.19l-1.35,5.05ZM126.21,12.37c-2.55,0-5.84.36-6.58,3.11-.45,1.67.44,2.41,1.68,2.41,2.01,0,3.82-1.48,4.24-3.06l.66-2.46Z"/>
              <path class="cls-2" d="M141.65,15.91c-.28,1.05-.58,2.34-.77,3.23h-1.83l.5-2.22h-.08c-1.06,1.36-2.9,2.51-5.08,2.51-3.12,0-4.85-2.61-3.77-6.63,1.18-4.4,4.55-6.98,7.69-6.98,1.98,0,3.07.93,3.4,2.01h.05l2.1-7.82h2.06l-4.26,15.91ZM140.83,11.31c.7-2.61-.86-3.9-2.6-3.9-2.55,0-4.68,2.3-5.48,5.29-.74,2.75-.03,5.09,2.62,5.09,2.23,0,4.22-1.89,4.78-3.97l.67-2.51Z"/>
            </g>
            <g>
              <path class="cls-2" d="M50.12,10.41c1.34.45,1.84,1.82,1.76,3.8-.11,2.63-.12,4.23.07,4.93h-2.13c-.16-.53-.15-2.13-.03-4.4.14-2.53-.6-3.66-2.83-3.66h-2.3l-2.16,8.06h-2.06L45.24,1.17c1.23-.24,2.9-.38,4.39-.38,2.45,0,3.93.48,4.78,1.48.68.79.87,2.03.5,3.4-.65,2.42-2.57,3.97-4.77,4.67l-.02.07ZM47.48,9.54c2.63,0,4.69-1.44,5.28-3.64.72-2.7-1.16-3.54-3.46-3.54-1.11,0-1.93.1-2.38.19l-1.87,6.98h2.42Z"/>
              <path class="cls-2" d="M64.32,18.59c-.86.36-2.4.81-4.45.81-3.94,0-5.57-2.68-4.53-6.58,1.1-4.09,4.26-7.03,7.9-7.03,4.16,0,4.24,3.68,3.63,5.96-.12.46-.24.79-.35,1.1h-9.19c-.94,3.61.82,4.97,3.25,4.97,1.68,0,2.79-.34,3.72-.67v1.44ZM64.94,11.36c.5-1.77.35-4.07-2.3-4.07-2.48,0-4.17,2.27-4.85,4.07h7.16Z"/>
              <path class="cls-2" d="M77.66,18.59c-.86.36-2.4.81-4.45.81-3.94,0-5.57-2.68-4.53-6.58,1.1-4.09,4.26-7.03,7.9-7.03,4.16,0,4.24,3.68,3.63,5.96-.12.46-.24.79-.35,1.1h-9.19c-.94,3.61.82,4.97,3.25,4.97,1.69,0,2.79-.34,3.72-.67v1.44ZM78.28,11.36c.5-1.77.35-4.07-2.3-4.07-2.48,0-4.18,2.27-4.85,4.07h7.16Z"/>
              <path class="cls-2" d="M83.35,19.14h-2.06L86.42,0h2.06l-5.13,19.14Z"/>
              <path class="cls-2" d="M103.14,19.14h-9.86L98.16.91h2.06l-4.43,16.53h7.8l-.45,1.7Z"/>
              <path class="cls-2" d="M114.45,18.59c-.86.36-2.4.81-4.45.81-3.94,0-5.57-2.68-4.53-6.58,1.1-4.09,4.26-7.03,7.9-7.03,4.16,0,4.24,3.68,3.63,5.96-.12.46-.24.79-.35,1.1h-9.19c-.94,3.61.82,4.97,3.25,4.97,1.69,0,2.79-.34,3.72-.67v1.44ZM115.07,11.36c.5-1.77.35-4.07-2.3-4.07-2.48,0-4.18,2.27-4.85,4.07h7.16Z"/>
              <path class="cls-2" d="M127.26,16.03c-.29,1.08-.57,2.2-.64,3.11h-1.88l.25-1.67h-.07c-.97,1.03-2.61,1.96-4.51,1.96-2.58,0-3.45-1.82-2.94-3.71.84-3.13,4.12-4.83,9.11-4.81.29-1.1.96-3.59-2.11-3.59-1.16,0-2.46.31-3.54.93l-.13-1.36c1.28-.69,2.9-1.1,4.41-1.1,3.81,0,4.11,2.61,3.41,5.19l-1.35,5.05ZM126.21,12.37c-2.55,0-5.84.36-6.58,3.11-.45,1.67.44,2.41,1.68,2.41,2.01,0,3.82-1.48,4.24-3.06l.66-2.46Z"/>
              <path class="cls-2" d="M141.65,15.91c-.28,1.05-.58,2.34-.77,3.23h-1.83l.5-2.22h-.08c-1.06,1.36-2.9,2.51-5.08,2.51-3.12,0-4.85-2.61-3.77-6.63,1.18-4.4,4.55-6.98,7.69-6.98,1.98,0,3.07.93,3.4,2.01h.05l2.1-7.82h2.06l-4.26,15.91ZM140.83,11.31c.7-2.61-.86-3.9-2.6-3.9-2.55,0-4.68,2.3-5.48,5.29-.74,2.75-.03,5.09,2.62,5.09,2.23,0,4.22-1.89,4.78-3.97l.67-2.51Z"/>
            </g>
          </g>
          <path class="cls-2" d="M149.41,12.64c1.89,0,3.35,1.44,3.35,3.28s-1.46,3.31-3.35,3.31-3.35-1.46-3.35-3.31,1.52-3.28,3.35-3.28ZM149.41,18.59c1.48,0,2.56-1.17,2.56-2.65s-1.11-2.67-2.58-2.67-2.56,1.19-2.56,2.67c0,1.59,1.23,2.65,2.58,2.65ZM148.15,17.65v-3.33c.3-.05.71-.11,1.22-.11.6,0,1.46.11,1.46.98,0,.39-.3.66-.69.77v.05c.33.11.48.38.59.81.1.51.17.71.24.83h-.76c-.09-.12-.16-.41-.25-.83-.13-.52-.41-.52-1.1-.52v1.35h-.72ZM148.88,15.78c.56,0,1.17,0,1.17-.5,0-.3-.22-.52-.74-.52-.22,0-.36.02-.43.03v.99Z"/>
        </g>
      </g>
      <g>
        <path class="cls-1" d="M31.93,93.05h-1.85v-7.8h1.85v7.8ZM39.99,90.45c0,5.75-3.8,6.41-8.48,6.85l-.59-1.58c2.32-.13,3.85-.37,5.24-1.01,1.85-.85,1.95-2.96,1.95-3.5v-6.22h1.88v5.46Z"/>
        <path class="cls-1" d="M56.6,89.93v1.74h-14.18v-1.74h14.18Z"/>
        <path class="cls-1" d="M62.49,88.87c0,6.03-2.27,7.87-3.07,8.52l-1.39-1.25c.74-.53,2.6-1.84,2.6-6.95v-3.99h1.85v3.68ZM66.8,95.02c3.67-.79,4.5-4.83,4.66-5.56l1.63.63c-1.47,6.32-6.56,6.71-8.08,6.82v-12.15h1.79v10.26Z"/>
        <path class="cls-1" d="M76.86,93.05h-1.85v-7.8h1.85v7.8ZM84.93,90.45c0,5.75-3.8,6.41-8.48,6.85l-.59-1.58c2.32-.13,3.85-.37,5.24-1.01,1.85-.85,1.95-2.96,1.95-3.5v-6.22h1.88v5.46Z"/>
        <path class="cls-1" d="M101.54,89.93v1.74h-14.18v-1.74h14.18Z"/>
        <path class="cls-1" d="M106.07,84.63v3.68c3.55.91,7.14,2.66,7.99,3.07l-.85,1.74c-2.06-1.19-5.16-2.51-7.14-3.1v7.3h-1.92v-12.69h1.92ZM110.72,87.91c-.32-.65-.64-1.19-1.34-2.16l1.21-.56c.66.88.99,1.41,1.36,2.14l-1.23.58ZM112.94,87.09c-.35-.7-.86-1.51-1.31-2.1l1.15-.53c.62.75.91,1.15,1.42,2.03l-1.26.6Z"/>
        <path class="cls-1" d="M133.34,85.88v10.5h-11.88v-10.5h11.88ZM131.38,87.45h-8.02v7.36h8.02v-7.36Z"/>
        <path class="cls-1" d="M150.03,89.93v1.74h-14.18v-1.74h14.18Z"/>
        <path class="cls-1" d="M154.56,84.63v3.68c3.55.91,7.14,2.66,7.99,3.07l-.85,1.74c-2.06-1.19-5.16-2.51-7.14-3.1v7.3h-1.92v-12.69h1.92ZM159.21,87.91c-.32-.65-.64-1.19-1.34-2.16l1.21-.56c.66.88.99,1.41,1.36,2.14l-1.23.58ZM161.43,87.09c-.35-.7-.86-1.51-1.31-2.1l1.15-.53c.62.75.91,1.15,1.42,2.03l-1.26.6Z"/>
      </g>
    </g>
  </g>
</svg>