<?xml version="1.0" encoding="UTF-8"?>
<svg id="Layer_2" data-name="Layer 2" xmlns="http://www.w3.org/2000/svg" viewBox="0 0 410 75.24">
  <defs>
    <style>
      .cls-1 {
        fill: #e4de52;
      }

      .cls-1, .cls-2, .cls-3, .cls-4 {
        stroke-width: 0px;
      }

      .cls-3 {
        fill: #fff;
      }

      .cls-4 {
        fill: #ac2d37;
      }
    </style>
  </defs>
  <g id="Back">
    <g>
      <rect class="cls-1" y="59.23" width="410" height="16.01"/>
      <g>
        <g>
          <g>
            <rect class="cls-4" x="144.51" y="0" width="259.36" height="35.71" rx="17.85" ry="17.85"/>
            <path class="cls-4" d="M153.23,28.34s-1.44,3.86-4.21,5.33c-2.76,1.48-4.86,1.67-4.86,1.67,0,0,4.59,2.08,9.28-.13,4.7-2.22,5.31-5.1,5.31-5.1l-5.51-1.77Z"/>
          </g>
          <g>
            <path class="cls-4" d="M23.35,68.18V12.11l-9.47,6.96v-10.03l9.47-6.96h9.47v66.09h-9.47Z"/>
            <path class="cls-4" d="M41.12,68.18v-8.91l17.08-32.21c.87-1.61,1.36-3.02,1.48-4.22.12-1.21.19-2.71.19-4.5,0-.8-.02-1.65-.05-2.55-.03-.9-.2-1.69-.51-2.37-.31-.68-.77-1.25-1.39-1.72-.62-.46-1.52-.7-2.69-.7-1.42,0-2.55.4-3.39,1.21-.83.8-1.25,1.98-1.25,3.53v5.38h-9.47v-5.2c0-1.98.37-3.84,1.11-5.57.74-1.73,1.76-3.25,3.06-4.55,1.24-1.3,2.72-2.34,4.46-3.11,1.73-.77,3.59-1.16,5.57-1.16,2.47,0,4.59.45,6.36,1.35,1.76.9,3.23,2.12,4.41,3.67,1.11,1.55,1.93,3.31,2.46,5.29.53,1.98.79,4.08.79,6.31,0,1.61-.03,2.96-.09,4.04-.06,1.08-.19,2.12-.37,3.11-.19.99-.5,1.98-.93,2.97-.43.99-1.02,2.2-1.76,3.62l-13.92,26.83h17.08v9.47h-28.22Z"/>
            <path class="cls-4" d="M73.12,15.73c0-2.23.39-4.21,1.16-5.94.77-1.73,1.81-3.22,3.11-4.46,1.3-1.24,2.8-2.18,4.5-2.83,1.7-.65,3.48-.97,5.34-.97s3.63.32,5.34.97,3.2,1.59,4.5,2.83c1.3,1.24,2.33,2.72,3.11,4.46.77,1.73,1.16,3.71,1.16,5.94v38.8c0,2.23-.39,4.21-1.16,5.94-.77,1.73-1.81,3.22-3.11,4.46-1.3,1.24-2.8,2.18-4.5,2.83s-3.48.97-5.34.97-3.64-.32-5.34-.97c-1.7-.65-3.2-1.59-4.5-2.83-1.3-1.24-2.34-2.72-3.11-4.46-.77-1.73-1.16-3.71-1.16-5.94V15.73ZM82.59,54.53c0,1.36.43,2.49,1.3,3.39.87.9,1.98,1.35,3.34,1.35s2.47-.45,3.34-1.35c.87-.9,1.3-2.03,1.3-3.39V15.73c0-1.36-.43-2.49-1.3-3.39-.87-.9-1.98-1.35-3.34-1.35s-2.48.45-3.34,1.35c-.87.9-1.3,2.03-1.3,3.39v38.8Z"/>
            <path class="cls-4" d="M111.62,22.23c-2.41,0-4.33-.65-5.75-1.95-1.42-1.3-2.14-3-2.14-5.11v-6.03c0-2.35.71-4.21,2.14-5.57,1.42-1.36,3.34-2.04,5.75-2.04s4.33.68,5.75,2.04c1.42,1.36,2.14,3.22,2.14,5.57v6.03c0,2.1-.71,3.81-2.14,5.11-1.42,1.3-3.34,1.95-5.75,1.95ZM104.85,68.18L127.5,2.08h6.13l-22.65,66.09h-6.13ZM111.62,16.66c.62,0,1.16-.23,1.62-.7.46-.46.7-1.04.7-1.72v-4.73c0-.68-.23-1.25-.7-1.72-.46-.46-1.01-.7-1.62-.7s-1.16.23-1.62.7c-.46.46-.7,1.04-.7,1.72v4.73c0,.68.23,1.25.7,1.72.46.46,1,.7,1.62.7ZM126.85,68.73c-2.41,0-4.33-.65-5.76-1.95-1.42-1.3-2.13-3-2.13-5.11v-6.03c0-2.35.71-4.21,2.13-5.57,1.42-1.36,3.34-2.04,5.76-2.04s4.33.68,5.75,2.04c1.42,1.36,2.13,3.22,2.13,5.57v6.03c0,2.1-.71,3.81-2.13,5.11-1.42,1.3-3.34,1.95-5.75,1.95ZM124.53,60.75c0,.68.23,1.25.7,1.72.46.46,1.01.7,1.62.7s1.16-.23,1.62-.7.7-1.04.7-1.72v-4.73c0-.68-.23-1.25-.7-1.72s-1.01-.7-1.62-.7-1.16.23-1.62.7c-.46.46-.7,1.04-.7,1.72v4.73Z"/>
          </g>
        </g>
        <g>
          <path class="cls-3" d="M155.72,19.66c1.37-1.14,3.34-3.39,5.16-5.97.57-.8,1.12-1.22,1.67-1.22.33,0,.69.16,1.08.49q.2.18.92.96c3.53,3.87,6.18,6.3,8.46,7.79l-1.51,2.41c-2.18-1.63-5.26-4.67-8.12-8.01-.35-.41-.59-.59-.79-.59-.22,0-.39.18-.69.63-1.57,2.41-3.24,4.55-4.55,5.81l-1.63-2.32ZM171.5,12.91c0,1.3-1.06,2.37-2.32,2.37s-2.24-1.1-2.24-2.37,1.04-2.37,2.28-2.37,2.28,1.1,2.28,2.37ZM168.08,12.91c0,.65.53,1.2,1.12,1.2s1.14-.57,1.14-1.2-.51-1.16-1.14-1.16-1.12.53-1.12,1.16Z"/>
          <path class="cls-3" d="M185.55,17.66c-.24,4.67-1.88,7.32-5.73,9.1l-1.75-1.96c3.47-1.47,4.85-3.45,4.98-7.14h-7.04v-2.28h15.8v2.28h-6.26ZM189.4,10.65v2.28h-10.87v-2.28h10.87Z"/>
          <path class="cls-3" d="M205.38,26.29h-2.24v-6.97c-1.35,1.08-2.9,2.08-4.28,2.73l-1.39-1.94c3.71-1.69,6.83-4.26,8.99-7.44l1.94,1.35c-.82,1.12-1.79,2.18-3.02,3.34v8.93Z"/>
          <path class="cls-3" d="M215.86,15.91v-2.3h8.2v-3.92h2.39v3.71h4.65v2.3h-4.53v8.58c0,1.71-.51,2.2-2.32,2.2-1.14,0-1.96-.06-2.77-.18l-.53-2.49c.92.18,1.77.26,2.53.26.57,0,.69-.14.69-.77v-5.51c-1.61,2.71-4.81,5.73-7.34,6.93l-1.55-1.92c3.02-1.55,5.71-3.94,7.71-6.87h-7.14Z"/>
          <path class="cls-3" d="M242.73,23.98c4.12-1.08,5.89-2.92,5.89-6.14,0-2.71-1.49-4.47-4.22-4.98-.22,3.71-1.02,6.73-2.45,9.3-1.08,1.94-2.08,2.81-3.26,2.81-.69,0-1.45-.33-2.18-.94-1.18-1-1.92-2.77-1.92-4.59,0-2.45.94-4.69,2.71-6.4,1.71-1.57,3.65-2.34,5.93-2.34,4.83,0,8.07,2.9,8.07,7.24s-2.61,7.04-7.26,8.12l-1.29-2.08ZM236.87,19.17c0,1.67.79,3.26,1.63,3.26.41,0,.9-.55,1.51-1.73,1.02-2,1.73-4.69,2.04-7.83-1.14.2-2.2.73-2.98,1.45-1.45,1.41-2.2,3.08-2.2,4.85Z"/>
          <path class="cls-3" d="M260.03,10.51v9.03h-2.51v-9.03h2.51ZM267.44,10.1v6.83c.06,4.94-1.65,7.87-5.91,10.05l-1.73-2.04c1.96-.8,3.73-2.34,4.42-3.83.51-1.04.71-2.3.71-4.38v-6.63h2.51Z"/>
          <path class="cls-3" d="M290.15,16.81v2.53h-15.89v-2.53h15.89Z"/>
          <path class="cls-3" d="M292.91,24.13c1.75-1.16,3.06-3.1,3.55-5.26.35-1.57.49-3.65.49-7.59l2.35.16c0,4.16-.18,6.69-.61,8.44-.59,2.37-1.98,4.47-4,6.1l-1.79-1.84ZM303.66,10.51v11.83c2.06-1.24,4.2-3.36,5.71-5.61l1.29,2.2c-1.94,2.69-4.51,5-7.59,6.83l-1.75-1.35v-13.89h2.34Z"/>
          <path class="cls-3" d="M318.91,10.51v9.03h-2.51v-9.03h2.51ZM326.33,10.1v6.83c.06,4.94-1.65,7.87-5.91,10.05l-1.73-2.04c1.96-.8,3.73-2.34,4.42-3.83.51-1.04.71-2.3.71-4.38v-6.63h2.51Z"/>
          <path class="cls-3" d="M349.04,16.81v2.53h-15.89v-2.53h15.89Z"/>
          <path class="cls-3" d="M359.92,15.03c2.43,1.08,5.08,2.61,7.32,4.2l-1.51,2.3c-2.2-1.65-3.96-2.81-5.93-3.89v8.79h-2.51V9.75h2.51v5.22l.12.06ZM365.04,14.65c-.57-1.02-1.26-1.98-1.96-2.79l1.31-.96c.73.75,1.41,1.71,2.02,2.75l-1.37,1ZM367.36,13.28c-.63-1.06-1.35-2.02-2.02-2.71l1.29-.98c.79.77,1.51,1.69,2.1,2.67l-1.37,1.02Z"/>
          <path class="cls-3" d="M372.05,12.48c3.79-.49,10.13-1.14,15.31-1.59l.33,2.24c-2,.16-3.55.57-4.67,1.24-2.06,1.24-3.4,3.34-3.4,5.32,0,2.65,1.96,4,5.99,4.16l.1,2.53c-5.12-.06-8.42-2.57-8.42-6.4,0-2.47,1.16-4.65,3.36-6.3l-1.37.18c-3.28.41-5.38.73-6.87.98l-.35-2.35ZM385.45,19.25c-.53-1.02-1.2-1.96-1.86-2.73l1.32-.86c.69.73,1.31,1.63,1.88,2.65l-1.33.94ZM387.67,17.72c-.53-.94-1.22-1.84-1.96-2.63l1.3-.94c.78.8,1.43,1.63,2,2.59l-1.33.98Z"/>
        </g>
        <g>
          <path class="cls-2" d="M147.57,54.52c2.18-1.01,4.39-2.41,6.21-3.89l1.23,2.77c-1.48,1.15-3.78,2.69-5.73,3.83l-1.71-2.71ZM158.17,45.63c.28-.92.48-1.73.59-2.55l3.22.36c-.25.78-.56,1.59-.84,2.18h4.31v10.4h-3.64v1.68h10.68v2.69h-8.61c2.46,1.9,5.37,3.24,9.4,4.39l-1.9,2.85c-3.78-1.48-6.88-3.44-9.57-6.07v6.77h-3.13v-6.57c-2.49,2.8-5.57,4.87-9.26,6.27l-1.82-2.71c3.66-1.01,6.68-2.6,9.26-4.92h-8.7v-2.69h10.52v-1.68h-3.52v-10.4h3.02ZM152.6,50.52c-1.17-1.45-2.71-2.96-4.14-4.03l2.24-2.18c1.54,1.09,3.08,2.55,4.17,3.92l-2.26,2.29ZM162.7,49.82v-1.96h-4.81v1.96h4.81ZM162.7,53.91v-2.07h-4.81v2.07h4.81ZM165.55,48.42c1.34-1.17,2.85-2.82,3.94-4.34l2.77,1.96c-1.15,1.34-2.96,3.1-4.48,4.34l-2.24-1.96ZM170.98,56.73c-1.65-1.54-3.61-3.05-5.4-4.14l1.99-2.21c1.93,1.06,4.03,2.49,5.73,3.89l-2.32,2.46Z"/>
          <path class="cls-2" d="M184.34,44.51v15.16c0,3.08.92,4.45,3.02,4.45,3.22,0,5.68-2.07,8.14-6.82l2.46,2.74c-1.4,2.49-3.1,4.59-4.78,5.85-1.79,1.34-3.61,1.93-5.99,1.93-4.22,0-6.32-2.55-6.32-7.64v-15.66h3.47Z"/>
          <path class="cls-2" d="M208.93,43.78h3.27l-.14,3.61c1.71-.14,3.44-.34,4.98-.59l.34,3.1c-1.62.22-3.72.45-5.43.59l-.17,4.84c.25.62.42,1.48.42,2.24,0,1.17-.25,2.07-.87,3.02-.5.78-.84,1.76-.84,2.38,0,.95,1.51,1.45,4.48,1.45,1.37,0,3.08-.2,3.86-.45,1.01-.28,1.51-1.12,1.51-2.43s-.48-3.36-1.09-4.98l3.22-.25c.7,1.57,1.26,4.25,1.26,6.01,0,2.13-.87,3.61-2.54,4.31-1.26.56-3.75.9-6.38.9-5.09,0-7.5-1.03-7.5-3.22,0-.5.11-1.03.31-1.51-.45.08-.81.14-1.17.14-1.15,0-1.96-.45-2.63-1.43-.53-.78-.75-1.79-.75-3.38.14-1.4.39-2.24.95-3.13.87-1.45,2.29-2.32,3.78-2.32.34,0,.67.03,1.04.14l.03-2.13c-2.66.11-2.8.11-3.41.11-.67.03-1.17.03-2.32.03v-3.13h.87c1.9,0,2.63,0,4.64-.08h.28l.03-3.83ZM209.26,57.65l.03-.17c.06-.5-.14-1.34-.39-1.73-.25-.39-.64-.62-1.06-.62-1.17,0-2.1,1.29-2.15,3.08,0,1.34.56,2.04,1.57,2.04,1.15,0,1.79-.76,2.01-2.46v-.14ZM225.12,55.81c-1.71-2.46-3.69-4.64-5.9-6.57l2.38-2.1c2.07,1.62,4.25,3.8,5.99,6.1l-2.46,2.57Z"/>
          <path class="cls-2" d="M237.31,43.95h3.05v4.36c1.76-.25,3.13-.5,4.39-.87l.22,3.1c-1.73.36-2.54.5-4.62.78v3.52c1.45-.39,3.25-.62,4.92-.62,4.36,0,7.38,2.52,7.38,6.13,0,4.25-3.36,6.88-9.45,7.41l-1.34-3.05c5.45-.53,7.52-1.73,7.52-4.42,0-2.01-1.73-3.27-4.47-3.27-1.46,0-2.83.22-4.56.73v6.8c0,1.99-1.01,3.02-2.85,3.02s-3.58-.73-4.75-1.99c-.75-.84-1.06-1.59-1.09-2.77.17-2.69,2.1-5.01,5.65-6.82v-4.34c-1.31.14-3.3.28-4.59.28v-3.13c1.43,0,2.99-.06,4.59-.17v-4.7ZM237.37,59.08c-1.79,1.06-2.83,2.49-2.83,3.8.03.56.22.95.67,1.29.42.31,1.06.56,1.43.56.48,0,.73-.36.73-1.03v-4.61ZM252.02,52.68c-1.87-1.87-4.03-3.66-5.85-4.81l1.96-2.41c2.18,1.34,4.28,2.96,5.87,4.59l-1.99,2.63Z"/>
          <path class="cls-2" d="M280.64,50.75c-.42,4-1.2,7.22-2.38,9.71,1.45,1.93,3.24,3.69,5.12,5.06l-1.87,2.6c-1.43-.98-3.36-2.96-4.75-4.95-1.51,2.18-3.38,4.03-5.51,5.37l-1.85-2.55c2.24-1.12,4.33-3.13,5.68-5.48-1.01-1.85-1.82-3.78-2.29-5.34-.56,1.34-.87,1.99-1.54,3.13l-1.76-2.77c.42-.84.56-1.17.84-1.82h-13.09v-2.52h3.16v-2.41h-2.49v-2.46h2.49v-3.02h2.57v3.02h2.32v-3.02h2.57v3.02h2.41v2.46h-2.41v2.41h2.74v1.79c1.01-2.55,1.73-6.04,2.13-9.87l2.91.62c-.25,1.65-.45,2.77-.73,4.17h7.66v2.85h-1.93ZM269.09,65.93c0,1.59-.59,2.1-2.41,2.1-.84,0-1.79-.06-2.41-.14l-.42-2.57c.48.11,1.26.2,1.85.2s.7-.14.7-.7v-1.17h-4.7v4.7h-2.69v-13.23h10.07v10.82ZM261.71,58.49h4.7v-1.31h-4.7v1.31ZM261.71,61.74h4.7v-1.34h-4.7v1.34ZM262.97,48.79v2.41h2.32v-2.41h-2.32ZM274.21,50.8c.36,2.27,1.12,4.53,2.24,6.68.64-1.9,1.12-4.08,1.43-6.74h-3.64l-.03.06Z"/>
          <path class="cls-2" d="M307.08,46.41v2.63h-7.78v2.43h10.57v2.69h-10.49v5.85c0,1.48-1.01,2.32-2.8,2.32-1.01,0-2.07-.08-3.02-.25l-.48-2.77c.89.17,1.79.28,2.46.28.56,0,.7-.17.7-.84v-4.59h-10.71v-2.69h3.97v-5.76h3.13v5.76h3.47v-8.31h3.19v3.24h7.78ZM285.97,60.51c2.13-1.57,3.83-3.41,5.23-5.68l2.74,1.29c-1.71,2.8-3.44,4.81-5.68,6.57l-2.29-2.18ZM288.18,65.74c6.94-.62,11.8-3.19,13.98-7.44l2.88,1.62c-2.91,4.98-7.86,7.86-14.99,8.7l-1.87-2.88ZM307.78,62.27c-1.71-2.29-3.61-4.22-5.96-6.07l2.52-1.59c2.35,1.71,4.39,3.55,6.04,5.48l-2.6,2.18Z"/>
          <path class="cls-2" d="M333.58,51.61l1.71,1.65c-2.24,7.75-7.02,12.73-14.26,14.77l-2.18-3.02c6.6-1.85,10.68-5.29,12.17-10.18h-15.91v-3.22h18.49ZM332.49,45.18v3.24h-15.02v-3.24h15.02Z"/>
          <path class="cls-2" d="M353.98,67.89h-3.58v-12.78c-2.32,1.85-5.34,3.75-7.86,4.98l-2.15-3.02c5.2-1.93,12.81-8.25,16.14-13.4l2.91,1.99c-1.37,2.07-3.22,4.2-5.45,6.32v15.91Z"/>
          <path class="cls-2" d="M385.92,48.26c-1.01,4.89-2.88,9.12-5.34,12.05-2.27,2.77-6.07,5.54-9.34,6.85l-2.32-3.05c7.02-2.77,11.44-7.75,12.81-14.38l-14.85.34v-3.55l17.12-.22,1.93,1.96Z"/>
          <path class="cls-2" d="M397.33,44.14l-.59,16.56h-3.19l-.59-16.56h4.36ZM397.33,62.69v4.36h-4.36v-4.36h4.36Z"/>
        </g>
      </g>
    </g>
  </g>
</svg>